<svg width="356" height="100" viewBox="0 0 356 100" fill="none" xmlns="http://www.w3.org/2000/svg">
<g clip-path="url(#clip0_0_2005)">
<g filter="url(#filter0_d_0_2005)">
<mask id="path-1-inside-1_0_2005" fill="white">
<path fill-rule="evenodd" clip-rule="evenodd" d="M10.001 9C10.001 4.02943 14.0304 0 19.001 0H337.001C341.972 0 346.001 4.02944 346.001 9V40C340.478 40 336.001 44.4772 336.001 50C336.001 55.5228 340.478 60 346.001 60V91C346.001 95.9706 341.972 100 337.001 100H19.001C14.0304 100 10.001 95.9706 10.001 91V60C15.5238 60 20.001 55.5228 20.001 50C20.001 44.4772 15.5238 40 10.001 40V9Z"/>
</mask>
<path fill-rule="evenodd" clip-rule="evenodd" d="M10.001 9C10.001 4.02943 14.0304 0 19.001 0H337.001C341.972 0 346.001 4.02944 346.001 9V40C340.478 40 336.001 44.4772 336.001 50C336.001 55.5228 340.478 60 346.001 60V91C346.001 95.9706 341.972 100 337.001 100H19.001C14.0304 100 10.001 95.9706 10.001 91V60C15.5238 60 20.001 55.5228 20.001 50C20.001 44.4772 15.5238 40 10.001 40V9Z" fill="white"/>
<path d="M346.001 40V41H347.001V40H346.001ZM346.001 60H347.001V59H346.001V60ZM10.001 60V59H9.00098V60H10.001ZM10.001 40H9.00098V41H10.001V40ZM19.001 -1C13.4781 -1 9.00098 3.47715 9.00098 9H11.001C11.001 4.58172 14.5827 1 19.001 1V-1ZM337.001 -1H19.001V1H337.001V-1ZM347.001 9C347.001 3.47715 342.524 -1 337.001 -1V1C341.419 1 345.001 4.58172 345.001 9H347.001ZM347.001 40V9H345.001V40H347.001ZM346.001 39C339.926 39 335.001 43.9249 335.001 50H337.001C337.001 45.0294 341.03 41 346.001 41V39ZM335.001 50C335.001 56.0751 339.926 61 346.001 61V59C341.03 59 337.001 54.9706 337.001 50H335.001ZM347.001 91V60H345.001V91H347.001ZM337.001 101C342.524 101 347.001 96.5229 347.001 91H345.001C345.001 95.4183 341.419 99 337.001 99V101ZM19.001 101H337.001V99H19.001V101ZM9.00098 91C9.00098 96.5229 13.4781 101 19.001 101V99C14.5827 99 11.001 95.4183 11.001 91H9.00098ZM9.00098 60V91H11.001V60H9.00098ZM19.001 50C19.001 54.9706 14.9715 59 10.001 59V61C16.0761 61 21.001 56.0751 21.001 50H19.001ZM10.001 41C14.9715 41 19.001 45.0294 19.001 50H21.001C21.001 43.9249 16.0761 39 10.001 39V41ZM9.00098 9V40H11.001V9H9.00098Z" fill="#004CFF" mask="url(#path-1-inside-1_0_2005)"/>
</g>
<path d="M33.562 84.98H35.422V86H30.478V84.98H32.326V79.016L30.85 79.916L30.322 78.992L32.674 77.54H33.562V84.98ZM40.2053 80.648C40.7333 80.648 41.1973 80.76 41.5973 80.984C41.9973 81.208 42.3053 81.524 42.5213 81.932C42.7453 82.34 42.8573 82.808 42.8573 83.336C42.8573 83.88 42.7333 84.36 42.4853 84.776C42.2453 85.192 41.8973 85.516 41.4413 85.748C40.9933 85.972 40.4693 86.084 39.8693 86.084C39.3493 86.084 38.8333 85.992 38.3213 85.808C37.8173 85.624 37.3973 85.376 37.0613 85.064L37.4933 84.152C38.2533 84.768 39.0493 85.076 39.8813 85.076C40.4413 85.076 40.8773 84.928 41.1893 84.632C41.5013 84.328 41.6573 83.904 41.6573 83.36C41.6573 82.84 41.5013 82.424 41.1893 82.112C40.8773 81.8 40.4613 81.644 39.9413 81.644C39.1973 81.644 38.5853 81.932 38.1053 82.508H37.3133V77.54H42.4973V78.536H38.5373V81.2C38.9773 80.832 39.5333 80.648 40.2053 80.648ZM46.9446 86.312L46.1046 85.832L51.0846 77.228L51.9246 77.708L46.9446 86.312ZM46.0686 82.604C45.4206 82.604 44.9126 82.384 44.5446 81.944C44.1766 81.504 43.9926 80.86 43.9926 80.012C43.9926 79.164 44.1766 78.524 44.5446 78.092C44.9126 77.652 45.4206 77.432 46.0686 77.432C46.7246 77.432 47.2366 77.652 47.6046 78.092C47.9726 78.524 48.1566 79.164 48.1566 80.012C48.1566 80.868 47.9726 81.516 47.6046 81.956C47.2366 82.388 46.7246 82.604 46.0686 82.604ZM46.0686 81.788C46.4206 81.788 46.6806 81.648 46.8486 81.368C47.0166 81.08 47.1006 80.628 47.1006 80.012C47.1006 79.404 47.0166 78.96 46.8486 78.68C46.6806 78.4 46.4206 78.26 46.0686 78.26C45.7166 78.26 45.4566 78.4 45.2886 78.68C45.1286 78.952 45.0486 79.396 45.0486 80.012C45.0486 80.628 45.1286 81.08 45.2886 81.368C45.4566 81.648 45.7166 81.788 46.0686 81.788ZM51.9606 86.084C51.3046 86.084 50.7926 85.868 50.4246 85.436C50.0566 84.996 49.8726 84.348 49.8726 83.492C49.8726 82.644 50.0566 82.004 50.4246 81.572C50.7926 81.132 51.3046 80.912 51.9606 80.912C52.6086 80.912 53.1166 81.132 53.4846 81.572C53.8606 82.004 54.0486 82.644 54.0486 83.492C54.0486 84.34 53.8646 84.984 53.4966 85.424C53.1286 85.864 52.6166 86.084 51.9606 86.084ZM51.9606 85.268C52.3126 85.268 52.5686 85.128 52.7286 84.848C52.8966 84.56 52.9806 84.108 52.9806 83.492C52.9806 82.884 52.8966 82.44 52.7286 82.16C52.5606 81.872 52.3046 81.728 51.9606 81.728C51.6086 81.728 51.3486 81.868 51.1806 82.148C51.0126 82.428 50.9286 82.876 50.9286 83.492C50.9286 84.108 51.0126 84.56 51.1806 84.848C51.3486 85.128 51.6086 85.268 51.9606 85.268ZM61.1789 86.084C60.6029 86.084 60.0949 85.96 59.6549 85.712C59.2229 85.464 58.8869 85.112 58.6469 84.656C58.4149 84.192 58.2989 83.656 58.2989 83.048C58.2989 82.432 58.4149 81.896 58.6469 81.44C58.8869 80.976 59.2229 80.62 59.6549 80.372C60.0949 80.124 60.6029 80 61.1789 80C61.7549 80 62.2589 80.124 62.6909 80.372C63.1309 80.62 63.4669 80.976 63.6989 81.44C63.9389 81.896 64.0589 82.432 64.0589 83.048C64.0589 83.656 63.9389 84.192 63.6989 84.656C63.4669 85.112 63.1309 85.464 62.6909 85.712C62.2589 85.96 61.7549 86.084 61.1789 86.084ZM61.1789 85.124C61.7149 85.124 62.1229 84.948 62.4029 84.596C62.6909 84.244 62.8349 83.728 62.8349 83.048C62.8349 82.376 62.6909 81.864 62.4029 81.512C62.1149 81.152 61.7069 80.972 61.1789 80.972C60.6509 80.972 60.2429 81.152 59.9549 81.512C59.6669 81.864 59.5229 82.376 59.5229 83.048C59.5229 83.728 59.6629 84.244 59.9429 84.596C60.2309 84.948 60.6429 85.124 61.1789 85.124ZM66.9689 80.144H68.5769V81.08H66.9689V86H65.7569V81.08H64.6169V80.144H65.7569V80.036C65.7569 79.228 65.9609 78.62 66.3689 78.212C66.7849 77.804 67.4169 77.576 68.2649 77.528L68.8049 77.504L68.8769 78.416L68.3249 78.452C67.8449 78.476 67.4969 78.6 67.2809 78.824C67.0729 79.048 66.9689 79.388 66.9689 79.844V80.144ZM71.0236 80.144H72.6316V81.08H71.0236V86H69.8116V81.08H68.6716V80.144H69.8116V80.036C69.8116 79.228 70.0156 78.62 70.4236 78.212C70.8396 77.804 71.4716 77.576 72.3196 77.528L72.8596 77.504L72.9316 78.416L72.3796 78.452C71.8996 78.476 71.5516 78.6 71.3356 78.824C71.1276 79.048 71.0236 79.388 71.0236 79.844V80.144ZM80.8572 80.156H82.0692L78.5772 88.16H77.3532L78.3732 85.856L75.9132 80.156H77.1852L79.0092 84.632L80.8572 80.156ZM85.4016 86.084C84.8256 86.084 84.3176 85.96 83.8776 85.712C83.4456 85.464 83.1096 85.112 82.8696 84.656C82.6376 84.192 82.5216 83.656 82.5216 83.048C82.5216 82.432 82.6376 81.896 82.8696 81.44C83.1096 80.976 83.4456 80.62 83.8776 80.372C84.3176 80.124 84.8256 80 85.4016 80C85.9776 80 86.4816 80.124 86.9136 80.372C87.3536 80.62 87.6896 80.976 87.9216 81.44C88.1616 81.896 88.2816 82.432 88.2816 83.048C88.2816 83.656 88.1616 84.192 87.9216 84.656C87.6896 85.112 87.3536 85.464 86.9136 85.712C86.4816 85.96 85.9776 86.084 85.4016 86.084ZM85.4016 85.124C85.9376 85.124 86.3456 84.948 86.6256 84.596C86.9136 84.244 87.0576 83.728 87.0576 83.048C87.0576 82.376 86.9136 81.864 86.6256 81.512C86.3376 81.152 85.9296 80.972 85.4016 80.972C84.8736 80.972 84.4656 81.152 84.1776 81.512C83.8896 81.864 83.7456 82.376 83.7456 83.048C83.7456 83.728 83.8856 84.244 84.1656 84.596C84.4536 84.948 84.8656 85.124 85.4016 85.124ZM94.767 80.144V86H93.591V85.052C93.407 85.388 93.151 85.644 92.823 85.82C92.503 85.996 92.143 86.084 91.743 86.084C90.319 86.084 89.607 85.3 89.607 83.732V80.144H90.819V83.72C90.819 84.192 90.915 84.54 91.107 84.764C91.299 84.988 91.595 85.1 91.995 85.1C92.467 85.1 92.843 84.948 93.123 84.644C93.411 84.34 93.555 83.936 93.555 83.432V80.144H94.767ZM100.027 81.02L99.295 81.092C98.719 81.148 98.303 81.324 98.047 81.62C97.799 81.916 97.675 82.292 97.675 82.748V86H96.463V80.144H97.639V81.164C97.951 80.476 98.587 80.096 99.547 80.024L99.943 80L100.027 81.02ZM107.178 80C108.578 80 109.278 80.788 109.278 82.364V86H108.066V82.424C108.066 81.928 107.966 81.564 107.766 81.332C107.574 81.1 107.27 80.984 106.854 80.984C106.366 80.984 105.974 81.136 105.678 81.44C105.382 81.744 105.234 82.152 105.234 82.664V86H104.022V80.144H105.21V81.08C105.402 80.728 105.67 80.46 106.014 80.276C106.358 80.092 106.746 80 107.178 80ZM115.952 83.276H111.812C111.9 84.516 112.516 85.136 113.66 85.136C114.332 85.136 114.94 84.916 115.484 84.476L115.856 85.328C115.584 85.56 115.248 85.744 114.848 85.88C114.448 86.016 114.04 86.084 113.624 86.084C112.688 86.084 111.948 85.816 111.404 85.28C110.868 84.744 110.6 84.004 110.6 83.06C110.6 82.46 110.716 81.928 110.948 81.464C111.188 81 111.52 80.64 111.944 80.384C112.376 80.128 112.864 80 113.408 80C114.2 80 114.82 80.256 115.268 80.768C115.724 81.28 115.952 81.988 115.952 82.892V83.276ZM113.432 80.888C112.968 80.888 112.596 81.036 112.316 81.332C112.044 81.62 111.88 82.036 111.824 82.58H114.908C114.884 82.036 114.744 81.62 114.488 81.332C114.24 81.036 113.888 80.888 113.432 80.888ZM120.241 82.988L122.689 86H121.237L119.533 83.864L117.841 86H116.389L118.837 82.988L116.521 80.144H117.985L119.533 82.124L121.093 80.144H122.545L120.241 82.988ZM126.305 85.148C126.489 85.148 126.669 85.136 126.845 85.112L126.785 86.036C126.585 86.068 126.377 86.084 126.161 86.084C125.401 86.084 124.833 85.9 124.457 85.532C124.089 85.156 123.905 84.616 123.905 83.912V81.08H122.765V80.144H123.905V78.38H125.117V80.144H126.725V81.08H125.117V83.864C125.117 84.72 125.513 85.148 126.305 85.148ZM134.072 80C134.576 80 135.024 80.128 135.416 80.384C135.816 80.64 136.124 81 136.34 81.464C136.564 81.928 136.676 82.464 136.676 83.072C136.676 83.672 136.568 84.2 136.352 84.656C136.136 85.112 135.828 85.464 135.428 85.712C135.036 85.96 134.584 86.084 134.072 86.084C133.632 86.084 133.244 85.992 132.908 85.808C132.572 85.616 132.316 85.344 132.14 84.992V88.16H130.928V80.144H132.14V81.104C132.316 80.752 132.572 80.48 132.908 80.288C133.244 80.096 133.632 80 134.072 80ZM133.784 85.124C134.312 85.124 134.72 84.948 135.008 84.596C135.296 84.236 135.44 83.728 135.44 83.072C135.44 82.408 135.292 81.892 134.996 81.524C134.708 81.156 134.304 80.972 133.784 80.972C133.256 80.972 132.848 81.152 132.56 81.512C132.28 81.872 132.14 82.384 132.14 83.048C132.14 83.712 132.28 84.224 132.56 84.584C132.848 84.944 133.256 85.124 133.784 85.124ZM143.154 80.144V86H141.978V85.052C141.794 85.388 141.538 85.644 141.21 85.82C140.89 85.996 140.53 86.084 140.13 86.084C138.706 86.084 137.994 85.3 137.994 83.732V80.144H139.206V83.72C139.206 84.192 139.302 84.54 139.494 84.764C139.686 84.988 139.982 85.1 140.382 85.1C140.854 85.1 141.23 84.948 141.51 84.644C141.798 84.34 141.942 83.936 141.942 83.432V80.144H143.154ZM148.414 81.02L147.682 81.092C147.106 81.148 146.69 81.324 146.434 81.62C146.186 81.916 146.062 82.292 146.062 82.748V86H144.85V80.144H146.026V81.164C146.338 80.476 146.974 80.096 147.934 80.024L148.33 80L148.414 81.02ZM151.695 86.084C151.103 86.084 150.587 85.96 150.147 85.712C149.715 85.464 149.379 85.116 149.139 84.668C148.907 84.212 148.791 83.68 148.791 83.072C148.791 82.464 148.911 81.928 149.151 81.464C149.399 81 149.743 80.64 150.183 80.384C150.631 80.128 151.151 80 151.743 80C152.151 80 152.543 80.068 152.919 80.204C153.303 80.34 153.615 80.524 153.855 80.756L153.483 81.62C152.955 81.188 152.407 80.972 151.839 80.972C151.279 80.972 150.839 81.156 150.519 81.524C150.207 81.884 150.051 82.396 150.051 83.06C150.051 83.716 150.207 84.224 150.519 84.584C150.831 84.936 151.271 85.112 151.839 85.112C152.407 85.112 152.955 84.896 153.483 84.464L153.855 85.34C153.599 85.572 153.279 85.756 152.895 85.892C152.511 86.02 152.111 86.084 151.695 86.084ZM158.084 80C159.484 80 160.184 80.788 160.184 82.364V86H158.972V82.424C158.972 81.928 158.872 81.564 158.672 81.332C158.48 81.1 158.176 80.984 157.76 80.984C157.272 80.984 156.88 81.136 156.584 81.44C156.288 81.744 156.14 82.152 156.14 82.664V86H154.928V77.54H156.14V81.032C156.34 80.696 156.608 80.44 156.944 80.264C157.28 80.088 157.66 80 158.084 80ZM164.29 80C165.074 80 165.654 80.196 166.03 80.588C166.414 80.98 166.606 81.576 166.606 82.376V86H165.442V85.028C165.29 85.372 165.062 85.636 164.758 85.82C164.462 85.996 164.114 86.084 163.714 86.084C163.33 86.084 162.978 86.008 162.658 85.856C162.338 85.696 162.086 85.476 161.902 85.196C161.726 84.916 161.638 84.604 161.638 84.26C161.638 83.836 161.746 83.504 161.962 83.264C162.186 83.016 162.55 82.84 163.054 82.736C163.566 82.632 164.266 82.58 165.154 82.58H165.43V82.232C165.43 81.784 165.334 81.46 165.142 81.26C164.958 81.06 164.654 80.96 164.23 80.96C163.566 80.96 162.902 81.164 162.238 81.572L161.878 80.72C162.19 80.504 162.566 80.332 163.006 80.204C163.454 80.068 163.882 80 164.29 80ZM163.93 85.184C164.37 85.184 164.73 85.036 165.01 84.74C165.29 84.436 165.43 84.048 165.43 83.576V83.264H165.214C164.59 83.264 164.11 83.292 163.774 83.348C163.438 83.404 163.198 83.5 163.054 83.636C162.91 83.764 162.838 83.952 162.838 84.2C162.838 84.48 162.938 84.716 163.138 84.908C163.346 85.092 163.61 85.184 163.93 85.184ZM170.328 86.084C169.312 86.084 168.5 85.836 167.892 85.34L168.264 84.464C168.864 84.928 169.564 85.16 170.364 85.16C170.756 85.16 171.056 85.096 171.264 84.968C171.472 84.832 171.576 84.644 171.576 84.404C171.576 84.196 171.504 84.032 171.36 83.912C171.224 83.792 170.984 83.692 170.64 83.612L169.668 83.396C169.148 83.276 168.756 83.08 168.492 82.808C168.228 82.536 168.096 82.192 168.096 81.776C168.096 81.248 168.308 80.82 168.732 80.492C169.164 80.164 169.728 80 170.424 80C170.84 80 171.236 80.068 171.612 80.204C171.988 80.332 172.312 80.516 172.584 80.756L172.212 81.608C171.636 81.152 171.04 80.924 170.424 80.924C170.056 80.924 169.764 80.996 169.548 81.14C169.34 81.284 169.236 81.48 169.236 81.728C169.236 81.928 169.3 82.092 169.428 82.22C169.564 82.34 169.776 82.432 170.064 82.496L171.06 82.724C171.628 82.852 172.044 83.052 172.308 83.324C172.572 83.588 172.704 83.936 172.704 84.368C172.704 84.896 172.488 85.316 172.056 85.628C171.632 85.932 171.056 86.084 170.328 86.084ZM179.069 83.276H174.929C175.017 84.516 175.633 85.136 176.777 85.136C177.449 85.136 178.057 84.916 178.601 84.476L178.973 85.328C178.701 85.56 178.365 85.744 177.965 85.88C177.565 86.016 177.157 86.084 176.741 86.084C175.805 86.084 175.065 85.816 174.521 85.28C173.985 84.744 173.717 84.004 173.717 83.06C173.717 82.46 173.833 81.928 174.065 81.464C174.305 81 174.637 80.64 175.061 80.384C175.493 80.128 175.981 80 176.525 80C177.317 80 177.937 80.256 178.385 80.768C178.841 81.28 179.069 81.988 179.069 82.892V83.276ZM176.549 80.888C176.085 80.888 175.713 81.036 175.433 81.332C175.161 81.62 174.997 82.036 174.941 82.58H178.025C178.001 82.036 177.861 81.62 177.605 81.332C177.357 81.036 177.005 80.888 176.549 80.888Z" fill="black"/>
<path d="M10.002 31.5H346.002" stroke="#004CFF" stroke-dasharray="3"/>
<g clip-path="url(#clip1_0_2005)">
<rect x="240" y="7" width="100" height="19" rx="4" fill="#F9F9F9"/>
<path d="M246.432 13.19L249.017 19.757L251.591 13.19H252.636L249.446 21H248.588L245.387 13.19H246.432ZM254.318 21.11C254.047 21.11 253.794 21.066 253.559 20.978C253.324 20.8827 253.119 20.7543 252.943 20.593C252.774 20.4317 252.639 20.2447 252.536 20.032C252.441 19.812 252.393 19.5737 252.393 19.317C252.393 19.053 252.452 18.8147 252.569 18.602C252.686 18.382 252.851 18.195 253.064 18.041C253.284 17.887 253.541 17.766 253.834 17.678C254.135 17.59 254.461 17.546 254.813 17.546C255.092 17.546 255.374 17.5717 255.66 17.623C255.946 17.6743 256.199 17.744 256.419 17.832V17.37C256.419 16.9007 256.287 16.534 256.023 16.27C255.759 15.9987 255.385 15.863 254.901 15.863C254.322 15.863 253.713 16.0867 253.075 16.534L252.756 15.907C253.497 15.4083 254.241 15.159 254.989 15.159C255.744 15.159 256.331 15.3607 256.749 15.764C257.174 16.1673 257.387 16.7357 257.387 17.469V19.812C257.387 20.0393 257.49 20.1567 257.695 20.164V21C257.592 21.0147 257.508 21.0257 257.442 21.033C257.376 21.0403 257.306 21.044 257.233 21.044C257.042 21.044 256.888 20.989 256.771 20.879C256.661 20.7617 256.595 20.6223 256.573 20.461L256.551 20.054C256.294 20.3987 255.968 20.6627 255.572 20.846C255.183 21.022 254.765 21.11 254.318 21.11ZM254.571 20.384C254.916 20.384 255.235 20.3217 255.528 20.197C255.829 20.065 256.056 19.8927 256.21 19.68C256.349 19.5407 256.419 19.3977 256.419 19.251V18.404C255.95 18.2207 255.462 18.129 254.956 18.129C254.472 18.129 254.076 18.2317 253.768 18.437C253.467 18.6423 253.317 18.91 253.317 19.24C253.317 19.4013 253.346 19.5517 253.405 19.691C253.471 19.8303 253.559 19.9513 253.669 20.054C253.786 20.1567 253.922 20.2373 254.076 20.296C254.23 20.3547 254.395 20.384 254.571 20.384ZM258.847 12.97H259.815V19.515C259.815 19.7277 259.87 19.8963 259.98 20.021C260.097 20.1383 260.259 20.197 260.464 20.197C260.545 20.197 260.64 20.186 260.75 20.164C260.86 20.1347 260.963 20.1017 261.058 20.065L261.212 20.846C261.051 20.912 260.86 20.967 260.64 21.011C260.42 21.055 260.226 21.077 260.057 21.077C259.683 21.077 259.386 20.9707 259.166 20.758C258.953 20.5453 258.847 20.2483 258.847 19.867V12.97ZM261.862 21V15.258H262.83V21H261.862ZM261.862 14.18V12.97H262.83V14.18H261.862ZM266.653 21.11C266.257 21.11 265.89 21.0293 265.553 20.868C265.215 20.7067 264.926 20.4903 264.684 20.219C264.442 19.9477 264.251 19.6323 264.112 19.273C263.98 18.9137 263.914 18.536 263.914 18.14C263.914 17.7367 263.976 17.3553 264.101 16.996C264.233 16.6293 264.412 16.3103 264.64 16.039C264.874 15.7677 265.149 15.555 265.465 15.401C265.787 15.2397 266.139 15.159 266.521 15.159C266.983 15.159 267.393 15.28 267.753 15.522C268.119 15.764 268.409 16.0573 268.622 16.402V12.97H269.59V19.812C269.59 20.0393 269.692 20.1567 269.898 20.164V21C269.795 21.0147 269.711 21.0257 269.645 21.033C269.586 21.0403 269.527 21.044 269.469 21.044C269.278 21.044 269.109 20.9817 268.963 20.857C268.823 20.725 268.754 20.5747 268.754 20.406V19.922C268.526 20.296 268.222 20.5893 267.841 20.802C267.467 21.0073 267.071 21.11 266.653 21.11ZM266.884 20.274C267.06 20.274 267.239 20.241 267.423 20.175C267.613 20.109 267.789 20.0173 267.951 19.9C268.119 19.7827 268.262 19.647 268.38 19.493C268.504 19.3317 268.585 19.163 268.622 18.987V17.337C268.556 17.1537 268.457 16.9813 268.325 16.82C268.193 16.6513 268.042 16.5083 267.874 16.391C267.712 16.2663 267.536 16.171 267.346 16.105C267.162 16.0317 266.979 15.995 266.796 15.995C266.51 15.995 266.249 16.0573 266.015 16.182C265.787 16.2993 265.589 16.4607 265.421 16.666C265.259 16.864 265.135 17.095 265.047 17.359C264.959 17.6157 264.915 17.8797 264.915 18.151C264.915 18.437 264.966 18.712 265.069 18.976C265.171 19.2327 265.311 19.4563 265.487 19.647C265.663 19.8377 265.868 19.9917 266.103 20.109C266.345 20.219 266.605 20.274 266.884 20.274ZM277.134 20.164C277.588 20.164 277.966 20.076 278.267 19.9C278.567 19.724 278.806 19.4967 278.982 19.218C279.165 18.932 279.293 18.6093 279.367 18.25C279.44 17.8833 279.477 17.513 279.477 17.139V13.19H280.467V17.139C280.467 17.667 280.404 18.1693 280.28 18.646C280.162 19.1153 279.972 19.5297 279.708 19.889C279.444 20.2483 279.099 20.5343 278.674 20.747C278.256 20.9523 277.746 21.055 277.145 21.055C276.521 21.055 275.997 20.945 275.572 20.725C275.146 20.505 274.802 20.2153 274.538 19.856C274.281 19.4893 274.094 19.0713 273.977 18.602C273.867 18.1253 273.812 17.6377 273.812 17.139V13.19H274.802V17.139C274.802 17.5277 274.838 17.9053 274.912 18.272C274.992 18.6313 275.121 18.9503 275.297 19.229C275.48 19.5077 275.718 19.735 276.012 19.911C276.312 20.0797 276.686 20.164 277.134 20.164ZM286.859 21H285.891V17.788C285.891 17.172 285.795 16.7247 285.605 16.446C285.421 16.1673 285.139 16.028 284.758 16.028C284.56 16.028 284.362 16.0683 284.164 16.149C283.966 16.2223 283.779 16.325 283.603 16.457C283.427 16.589 283.273 16.7467 283.141 16.93C283.009 17.1133 282.91 17.315 282.844 17.535V21H281.876V15.258H282.756V16.49C282.983 16.0867 283.309 15.764 283.735 15.522C284.167 15.28 284.637 15.159 285.143 15.159C285.473 15.159 285.748 15.2213 285.968 15.346C286.188 15.4633 286.364 15.632 286.496 15.852C286.628 16.0647 286.719 16.3177 286.771 16.611C286.829 16.9043 286.859 17.2233 286.859 17.568V21ZM291.17 20.714C291.111 20.7433 291.034 20.78 290.939 20.824C290.844 20.8607 290.734 20.901 290.609 20.945C290.492 20.9817 290.36 21.011 290.213 21.033C290.074 21.0623 289.927 21.077 289.773 21.077C289.421 21.077 289.117 20.9817 288.86 20.791C288.603 20.593 288.475 20.2887 288.475 19.878V16.017H287.694V15.258H288.475V13.344H289.443V15.258H290.73V16.017H289.443V19.581C289.458 19.7937 289.527 19.9477 289.652 20.043C289.777 20.1383 289.923 20.186 290.092 20.186C290.283 20.186 290.455 20.1567 290.609 20.098C290.77 20.032 290.88 19.9807 290.939 19.944L291.17 20.714ZM291.957 21V15.258H292.925V21H291.957ZM291.957 14.18V12.97H292.925V14.18H291.957ZM294.404 12.97H295.372V19.515C295.372 19.7277 295.427 19.8963 295.537 20.021C295.655 20.1383 295.816 20.197 296.021 20.197C296.102 20.197 296.197 20.186 296.307 20.164C296.417 20.1347 296.52 20.1017 296.615 20.065L296.769 20.846C296.608 20.912 296.417 20.967 296.197 21.011C295.977 21.055 295.783 21.077 295.614 21.077C295.24 21.077 294.943 20.9707 294.723 20.758C294.511 20.5453 294.404 20.2483 294.404 19.867V12.97ZM305.16 18.415C305.16 18.789 305.087 19.141 304.94 19.471C304.801 19.7937 304.603 20.0797 304.346 20.329C304.097 20.571 303.803 20.7617 303.466 20.901C303.129 21.0403 302.762 21.11 302.366 21.11C301.948 21.11 301.563 21.033 301.211 20.879C300.866 20.725 300.569 20.505 300.32 20.219C300.071 19.9257 299.876 19.5737 299.737 19.163C299.605 18.745 299.539 18.272 299.539 17.744C299.539 16.974 299.609 16.303 299.748 15.731C299.887 15.1517 300.085 14.6713 300.342 14.29C300.599 13.9013 300.907 13.6117 301.266 13.421C301.625 13.2303 302.025 13.135 302.465 13.135C302.971 13.135 303.429 13.256 303.84 13.498C304.258 13.74 304.584 14.081 304.819 14.521L304.225 15.104C304.064 14.7593 303.825 14.488 303.51 14.29C303.195 14.0847 302.843 13.982 302.454 13.982C302.153 13.982 301.882 14.0517 301.64 14.191C301.398 14.323 301.189 14.521 301.013 14.785C300.837 15.049 300.701 15.3717 300.606 15.753C300.511 16.127 300.459 16.556 300.452 17.04C300.613 16.6587 300.874 16.3543 301.233 16.127C301.592 15.8997 302.003 15.786 302.465 15.786C302.839 15.786 303.191 15.8557 303.521 15.995C303.851 16.127 304.137 16.314 304.379 16.556C304.621 16.7907 304.812 17.0693 304.951 17.392C305.09 17.7073 305.16 18.0483 305.16 18.415ZM302.377 20.274C302.626 20.274 302.865 20.2263 303.092 20.131C303.319 20.0283 303.517 19.8927 303.686 19.724C303.855 19.5553 303.987 19.361 304.082 19.141C304.185 18.9137 304.236 18.6717 304.236 18.415C304.236 18.1657 304.185 17.9273 304.082 17.7C303.987 17.4727 303.855 17.2783 303.686 17.117C303.517 16.9483 303.319 16.8163 303.092 16.721C302.865 16.6183 302.626 16.567 302.377 16.567C302.12 16.567 301.878 16.6183 301.651 16.721C301.431 16.8163 301.237 16.9483 301.068 17.117C300.899 17.2783 300.764 17.4727 300.661 17.7C300.566 17.9273 300.518 18.1657 300.518 18.415C300.518 18.6717 300.566 18.9137 300.661 19.141C300.764 19.361 300.899 19.5553 301.068 19.724C301.237 19.8927 301.431 20.0283 301.651 20.131C301.878 20.2263 302.12 20.274 302.377 20.274ZM306.243 21V19.768H307.057V21H306.243ZM308.126 21C308.126 20.7067 308.148 20.4317 308.192 20.175C308.243 19.9183 308.335 19.6727 308.467 19.438C308.599 19.2033 308.778 18.9797 309.006 18.767C309.24 18.5543 309.545 18.3417 309.919 18.129C310.139 18.0117 310.362 17.898 310.59 17.788C310.817 17.6707 311.022 17.5497 311.206 17.425C311.396 17.293 311.55 17.1537 311.668 17.007C311.792 16.8603 311.855 16.688 311.855 16.49C311.855 16.3653 311.825 16.2407 311.767 16.116C311.708 15.9913 311.624 15.8813 311.514 15.786C311.404 15.6907 311.264 15.6137 311.096 15.555C310.934 15.4963 310.747 15.467 310.535 15.467C310.315 15.467 310.113 15.5 309.93 15.566C309.754 15.6247 309.596 15.7017 309.457 15.797C309.317 15.885 309.196 15.9803 309.094 16.083C308.991 16.1857 308.907 16.2773 308.841 16.358L308.214 15.654C308.272 15.588 308.371 15.5 308.511 15.39C308.65 15.2727 308.826 15.1553 309.039 15.038C309.251 14.9207 309.497 14.8217 309.776 14.741C310.054 14.653 310.366 14.609 310.711 14.609C311.048 14.609 311.352 14.6567 311.624 14.752C311.895 14.84 312.122 14.9647 312.306 15.126C312.496 15.2873 312.643 15.478 312.746 15.698C312.848 15.9107 312.9 16.138 312.9 16.38C312.9 16.666 312.837 16.9153 312.713 17.128C312.588 17.3407 312.434 17.5277 312.251 17.689C312.075 17.8503 311.884 17.9897 311.679 18.107C311.473 18.217 311.29 18.3123 311.129 18.393C310.967 18.4737 310.784 18.5727 310.579 18.69C310.381 18.8 310.19 18.9283 310.007 19.075C309.823 19.2143 309.662 19.372 309.523 19.548C309.391 19.724 309.306 19.9147 309.27 20.12H313.021V21H308.126ZM319.589 17.777C319.589 18.261 319.52 18.7083 319.38 19.119C319.241 19.5223 319.047 19.8743 318.797 20.175C318.548 20.4683 318.251 20.6993 317.906 20.868C317.569 21.0293 317.202 21.11 316.806 21.11C316.403 21.11 316.029 21.0293 315.684 20.868C315.347 20.6993 315.054 20.4683 314.804 20.175C314.562 19.8743 314.372 19.5223 314.232 19.119C314.093 18.7083 314.023 18.261 314.023 17.777C314.023 17.293 314.093 16.8493 314.232 16.446C314.372 16.0353 314.562 15.6833 314.804 15.39C315.054 15.0893 315.347 14.8547 315.684 14.686C316.029 14.5173 316.403 14.433 316.806 14.433C317.202 14.433 317.569 14.5173 317.906 14.686C318.251 14.8547 318.548 15.0893 318.797 15.39C319.047 15.6833 319.241 16.0353 319.38 16.446C319.52 16.8493 319.589 17.293 319.589 17.777ZM318.61 17.777C318.61 17.4177 318.566 17.0877 318.478 16.787C318.39 16.4863 318.266 16.2297 318.104 16.017C317.943 15.797 317.752 15.6283 317.532 15.511C317.312 15.3937 317.07 15.335 316.806 15.335C316.535 15.335 316.286 15.3937 316.058 15.511C315.838 15.6283 315.648 15.797 315.486 16.017C315.332 16.2297 315.211 16.4863 315.123 16.787C315.035 17.0877 314.991 17.4177 314.991 17.777C314.991 18.1437 315.035 18.4773 315.123 18.778C315.211 19.0713 315.332 19.3243 315.486 19.537C315.648 19.7497 315.838 19.9147 316.058 20.032C316.286 20.1493 316.535 20.208 316.806 20.208C317.07 20.208 317.312 20.1493 317.532 20.032C317.752 19.9147 317.943 19.7497 318.104 19.537C318.266 19.3243 318.39 19.0713 318.478 18.778C318.566 18.4773 318.61 18.1437 318.61 17.777ZM320.78 21V19.768H321.594V21H320.78ZM322.663 21C322.663 20.7067 322.685 20.4317 322.729 20.175C322.78 19.9183 322.872 19.6727 323.004 19.438C323.136 19.2033 323.315 18.9797 323.543 18.767C323.777 18.5543 324.082 18.3417 324.456 18.129C324.676 18.0117 324.899 17.898 325.127 17.788C325.354 17.6707 325.559 17.5497 325.743 17.425C325.933 17.293 326.087 17.1537 326.205 17.007C326.329 16.8603 326.392 16.688 326.392 16.49C326.392 16.3653 326.362 16.2407 326.304 16.116C326.245 15.9913 326.161 15.8813 326.051 15.786C325.941 15.6907 325.801 15.6137 325.633 15.555C325.471 15.4963 325.284 15.467 325.072 15.467C324.852 15.467 324.65 15.5 324.467 15.566C324.291 15.6247 324.133 15.7017 323.994 15.797C323.854 15.885 323.733 15.9803 323.631 16.083C323.528 16.1857 323.444 16.2773 323.378 16.358L322.751 15.654C322.809 15.588 322.908 15.5 323.048 15.39C323.187 15.2727 323.363 15.1553 323.576 15.038C323.788 14.9207 324.034 14.8217 324.313 14.741C324.591 14.653 324.903 14.609 325.248 14.609C325.585 14.609 325.889 14.6567 326.161 14.752C326.432 14.84 326.659 14.9647 326.843 15.126C327.033 15.2873 327.18 15.478 327.283 15.698C327.385 15.9107 327.437 16.138 327.437 16.38C327.437 16.666 327.374 16.9153 327.25 17.128C327.125 17.3407 326.971 17.5277 326.788 17.689C326.612 17.8503 326.421 17.9897 326.216 18.107C326.01 18.217 325.827 18.3123 325.666 18.393C325.504 18.4737 325.321 18.5727 325.116 18.69C324.918 18.8 324.727 18.9283 324.544 19.075C324.36 19.2143 324.199 19.372 324.06 19.548C323.928 19.724 323.843 19.9147 323.807 20.12H327.558V21H322.663ZM334.127 17.777C334.127 18.261 334.057 18.7083 333.918 19.119C333.778 19.5223 333.584 19.8743 333.335 20.175C333.085 20.4683 332.788 20.6993 332.444 20.868C332.106 21.0293 331.74 21.11 331.344 21.11C330.94 21.11 330.566 21.0293 330.222 20.868C329.884 20.6993 329.591 20.4683 329.342 20.175C329.1 19.8743 328.909 19.5223 328.77 19.119C328.63 18.7083 328.561 18.261 328.561 17.777C328.561 17.293 328.63 16.8493 328.77 16.446C328.909 16.0353 329.1 15.6833 329.342 15.39C329.591 15.0893 329.884 14.8547 330.222 14.686C330.566 14.5173 330.94 14.433 331.344 14.433C331.74 14.433 332.106 14.5173 332.444 14.686C332.788 14.8547 333.085 15.0893 333.335 15.39C333.584 15.6833 333.778 16.0353 333.918 16.446C334.057 16.8493 334.127 17.293 334.127 17.777ZM333.148 17.777C333.148 17.4177 333.104 17.0877 333.016 16.787C332.928 16.4863 332.803 16.2297 332.642 16.017C332.48 15.797 332.29 15.6283 332.07 15.511C331.85 15.3937 331.608 15.335 331.344 15.335C331.072 15.335 330.823 15.3937 330.596 15.511C330.376 15.6283 330.185 15.797 330.024 16.017C329.87 16.2297 329.749 16.4863 329.661 16.787C329.573 17.0877 329.529 17.4177 329.529 17.777C329.529 18.1437 329.573 18.4773 329.661 18.778C329.749 19.0713 329.87 19.3243 330.024 19.537C330.185 19.7497 330.376 19.9147 330.596 20.032C330.823 20.1493 331.072 20.208 331.344 20.208C331.608 20.208 331.85 20.1493 332.07 20.032C332.29 19.9147 332.48 19.7497 332.642 19.537C332.803 19.3243 332.928 19.0713 333.016 18.778C333.104 18.4773 333.148 18.1437 333.148 17.777Z" fill="black"/>
</g>
<path d="M58.641 65.64C57.6776 66.6033 56.5556 67.085 55.275 67.085C54.4816 67.085 53.7336 66.9263 53.031 66.609C52.3396 66.2917 51.7333 65.8553 51.212 65.3C50.702 64.7447 50.294 64.093 49.988 63.345C49.6933 62.5857 49.546 61.7697 49.546 60.897C49.546 60.0697 49.6933 59.2933 49.988 58.568C50.294 57.8313 50.7076 57.191 51.229 56.647C51.7616 56.0917 52.385 55.6553 53.099 55.338C53.813 55.0093 54.5893 54.845 55.428 54.845C56.5613 54.845 57.5303 55.083 58.335 55.559C59.151 56.035 59.763 56.6753 60.171 57.48L58.42 58.772C58.114 58.1713 57.6833 57.7123 57.128 57.395C56.584 57.0777 55.989 56.919 55.343 56.919C54.833 56.919 54.3626 57.0267 53.932 57.242C53.5126 57.4573 53.15 57.752 52.844 58.126C52.5493 58.5 52.317 58.9307 52.147 59.418C51.9883 59.9053 51.909 60.421 51.909 60.965C51.909 61.5317 51.9996 62.0643 52.181 62.563C52.3623 63.0503 52.6116 63.4753 52.929 63.838C53.2463 64.2007 53.6203 64.4897 54.051 64.705C54.493 64.909 54.969 65.011 55.479 65.011C56.6463 65.011 57.7003 64.4613 58.641 63.362V62.512H56.21V60.795H60.579V67H58.641V65.64ZM62.1873 67V58.092H64.4653V67H62.1873ZM62.1873 56.851V54.59H64.4653V56.851H62.1873ZM66.8943 67V60.302H65.7213V58.568H66.8943V58.024C66.8943 56.9133 67.1607 56.035 67.6933 55.389C68.226 54.743 68.9513 54.42 69.8693 54.42C70.5947 54.42 71.3257 54.5957 72.0623 54.947L71.6033 56.664C71.4333 56.5733 71.2293 56.4997 70.9913 56.443C70.7647 56.375 70.555 56.341 70.3623 56.341C69.569 56.341 69.1723 56.8737 69.1723 57.939V58.568H71.3483V60.302H69.1723V67H66.8943ZM77.8103 66.541C77.5043 66.677 77.1303 66.813 76.6883 66.949C76.2463 67.085 75.7816 67.153 75.2943 67.153C74.977 67.153 74.6766 67.1133 74.3933 67.034C74.1213 66.9547 73.8776 66.83 73.6623 66.66C73.4583 66.4787 73.294 66.252 73.1693 65.98C73.0446 65.6967 72.9823 65.3567 72.9823 64.96V59.843H71.8093V58.092H72.9823V55.202H75.2603V58.092H77.1303V59.843H75.2603V64.195C75.2603 64.5123 75.3396 64.739 75.4983 64.875C75.6683 64.9997 75.8723 65.062 76.1103 65.062C76.3483 65.062 76.5806 65.0223 76.8073 64.943C77.034 64.8637 77.2153 64.7957 77.3513 64.739L77.8103 66.541ZM82.9617 67V54.93H91.0707V56.987H85.3077V60.098H90.1017V62.002H85.3077V67H82.9617ZM96.9724 60.064C96.281 60.0753 95.6634 60.2113 95.1194 60.472C94.5754 60.7213 94.1844 61.101 93.9464 61.611V67H91.6684V58.092H93.7594V59.996C93.918 59.69 94.105 59.418 94.3204 59.18C94.5357 58.9307 94.768 58.7153 95.0174 58.534C95.2667 58.3527 95.516 58.2167 95.7654 58.126C96.026 58.024 96.2754 57.973 96.5134 57.973C96.638 57.973 96.7287 57.973 96.7854 57.973C96.8534 57.973 96.9157 57.9787 96.9724 57.99V60.064ZM101.738 67.17C101.013 67.17 100.361 67.0453 99.7833 66.796C99.2053 66.5467 98.7123 66.2123 98.3043 65.793C97.9077 65.3623 97.6017 64.8693 97.3863 64.314C97.171 63.7587 97.0633 63.175 97.0633 62.563C97.0633 61.9397 97.171 61.3503 97.3863 60.795C97.6017 60.2397 97.9077 59.7523 98.3043 59.333C98.7123 58.9023 99.2053 58.5623 99.7833 58.313C100.361 58.0637 101.013 57.939 101.738 57.939C102.464 57.939 103.11 58.0637 103.676 58.313C104.254 58.5623 104.742 58.9023 105.138 59.333C105.546 59.7523 105.858 60.2397 106.073 60.795C106.289 61.3503 106.396 61.9397 106.396 62.563C106.396 63.175 106.289 63.7587 106.073 64.314C105.858 64.8693 105.552 65.3623 105.155 65.793C104.759 66.2123 104.271 66.5467 103.693 66.796C103.115 67.0453 102.464 67.17 101.738 67.17ZM99.4093 62.563C99.4093 62.9597 99.466 63.3223 99.5793 63.651C99.704 63.9683 99.8683 64.246 100.072 64.484C100.288 64.722 100.537 64.909 100.82 65.045C101.104 65.1697 101.41 65.232 101.738 65.232C102.067 65.232 102.373 65.1697 102.656 65.045C102.94 64.909 103.183 64.722 103.387 64.484C103.603 64.246 103.767 63.9627 103.88 63.634C104.005 63.3053 104.067 62.9427 104.067 62.546C104.067 62.1607 104.005 61.8037 103.88 61.475C103.767 61.1463 103.603 60.863 103.387 60.625C103.183 60.387 102.94 60.2057 102.656 60.081C102.373 59.945 102.067 59.877 101.738 59.877C101.41 59.877 101.104 59.945 100.82 60.081C100.537 60.217 100.288 60.404 100.072 60.642C99.8683 60.88 99.704 61.1633 99.5793 61.492C99.466 61.8207 99.4093 62.1777 99.4093 62.563ZM121.602 67H119.324V62.002C119.324 61.288 119.199 60.7667 118.95 60.438C118.712 60.1093 118.378 59.945 117.947 59.945C117.494 59.945 117.069 60.1207 116.672 60.472C116.275 60.812 115.992 61.2597 115.822 61.815V67H113.544V62.002C113.544 61.288 113.419 60.7667 113.17 60.438C112.932 60.1093 112.598 59.945 112.167 59.945C111.725 59.945 111.3 60.115 110.892 60.455C110.495 60.795 110.212 61.2427 110.042 61.798V67H107.764V58.092H109.821V59.741C110.15 59.163 110.597 58.721 111.164 58.415C111.742 58.0977 112.399 57.939 113.136 57.939C113.884 57.939 114.462 58.1203 114.87 58.483C115.278 58.8457 115.539 59.2933 115.652 59.826C116.015 59.214 116.474 58.7493 117.029 58.432C117.584 58.1033 118.219 57.939 118.933 57.939C119.477 57.939 119.925 58.041 120.276 58.245C120.627 58.449 120.899 58.7153 121.092 59.044C121.285 59.3727 121.415 59.7467 121.483 60.166C121.562 60.5853 121.602 61.0103 121.602 61.441V67ZM126.819 60.88C126.819 60.1433 126.95 59.418 127.21 58.704C127.482 57.9787 127.873 57.3327 128.383 56.766C128.893 56.1993 129.517 55.7403 130.253 55.389C130.99 55.0377 131.829 54.862 132.769 54.862C133.88 54.862 134.838 55.1057 135.642 55.593C136.458 56.0803 137.065 56.715 137.461 57.497L135.659 58.738C135.501 58.398 135.308 58.1147 135.081 57.888C134.855 57.65 134.611 57.463 134.35 57.327C134.09 57.191 133.818 57.0947 133.534 57.038C133.251 56.97 132.973 56.936 132.701 56.936C132.112 56.936 131.596 57.055 131.154 57.293C130.724 57.531 130.361 57.8427 130.066 58.228C129.783 58.602 129.568 59.0327 129.42 59.52C129.273 59.996 129.199 60.472 129.199 60.948C129.199 61.4807 129.284 61.9963 129.454 62.495C129.624 62.9823 129.862 63.413 130.168 63.787C130.486 64.161 130.86 64.4613 131.29 64.688C131.732 64.9147 132.214 65.028 132.735 65.028C133.007 65.028 133.291 64.994 133.585 64.926C133.88 64.858 134.158 64.7503 134.418 64.603C134.69 64.4557 134.94 64.2687 135.166 64.042C135.393 63.804 135.574 63.5207 135.71 63.192L137.631 64.297C137.439 64.7503 137.161 65.1527 136.798 65.504C136.447 65.844 136.045 66.133 135.591 66.371C135.149 66.609 134.673 66.7903 134.163 66.915C133.653 67.0397 133.155 67.102 132.667 67.102C131.806 67.102 131.018 66.9207 130.304 66.558C129.59 66.1953 128.973 65.725 128.451 65.147C127.941 64.5577 127.539 63.8947 127.244 63.158C126.961 62.41 126.819 61.6507 126.819 60.88ZM141.533 67.17C140.615 67.17 139.918 66.8753 139.442 66.286C138.966 65.6967 138.728 64.824 138.728 63.668V58.092H141.006V63.175C141.006 64.5463 141.499 65.232 142.485 65.232C142.927 65.232 143.352 65.1017 143.76 64.841C144.18 64.569 144.52 64.161 144.78 63.617V58.092H147.058V64.382C147.058 64.62 147.098 64.79 147.177 64.892C147.268 64.994 147.41 65.0507 147.602 65.062V67C147.376 67.0453 147.183 67.0737 147.024 67.085C146.877 67.0963 146.741 67.102 146.616 67.102C146.208 67.102 145.874 67.0113 145.613 66.83C145.364 66.6373 145.217 66.3767 145.171 66.048L145.12 65.334C144.724 65.946 144.214 66.405 143.59 66.711C142.967 67.017 142.281 67.17 141.533 67.17ZM152.518 67.17C151.77 67.17 151.039 67.051 150.325 66.813C149.611 66.575 148.999 66.235 148.489 65.793L149.339 64.365C149.883 64.7503 150.41 65.045 150.92 65.249C151.442 65.4417 151.957 65.538 152.467 65.538C152.921 65.538 153.278 65.453 153.538 65.283C153.799 65.113 153.929 64.8693 153.929 64.552C153.929 64.2347 153.776 64.0023 153.47 63.855C153.164 63.7077 152.666 63.5377 151.974 63.345C151.396 63.1863 150.903 63.0333 150.495 62.886C150.087 62.7387 149.759 62.5743 149.509 62.393C149.26 62.2003 149.079 61.985 148.965 61.747C148.852 61.4977 148.795 61.203 148.795 60.863C148.795 60.4097 148.88 60.0017 149.05 59.639C149.232 59.2763 149.481 58.9703 149.798 58.721C150.116 58.4603 150.484 58.262 150.903 58.126C151.334 57.99 151.799 57.922 152.297 57.922C152.966 57.922 153.589 58.0183 154.167 58.211C154.757 58.4037 155.295 58.7153 155.782 59.146L154.864 60.523C154.411 60.183 153.969 59.9337 153.538 59.775C153.119 59.6163 152.7 59.537 152.28 59.537C151.895 59.537 151.572 59.6163 151.311 59.775C151.051 59.9337 150.92 60.1887 150.92 60.54C150.92 60.6987 150.949 60.829 151.005 60.931C151.073 61.033 151.175 61.1237 151.311 61.203C151.447 61.2823 151.623 61.3617 151.838 61.441C152.065 61.509 152.343 61.5827 152.671 61.662C153.283 61.8207 153.805 61.9793 154.235 62.138C154.677 62.2967 155.034 62.478 155.306 62.682C155.59 62.886 155.794 63.124 155.918 63.396C156.054 63.6567 156.122 63.974 156.122 64.348C156.122 65.2207 155.799 65.912 155.153 66.422C154.507 66.9207 153.629 67.17 152.518 67.17ZM162.77 66.541C162.464 66.677 162.09 66.813 161.648 66.949C161.206 67.085 160.742 67.153 160.254 67.153C159.937 67.153 159.637 67.1133 159.353 67.034C159.081 66.9547 158.838 66.83 158.622 66.66C158.418 66.4787 158.254 66.252 158.129 65.98C158.005 65.6967 157.942 65.3567 157.942 64.96V59.843H156.769V58.092H157.942V55.202H160.22V58.092H162.09V59.843H160.22V64.195C160.22 64.5123 160.3 64.739 160.458 64.875C160.628 64.9997 160.832 65.062 161.07 65.062C161.308 65.062 161.541 65.0223 161.767 64.943C161.994 64.8637 162.175 64.7957 162.311 64.739L162.77 66.541ZM167.685 67.17C166.96 67.17 166.308 67.0453 165.73 66.796C165.152 66.5467 164.659 66.2123 164.251 65.793C163.854 65.3623 163.548 64.8693 163.333 64.314C163.118 63.7587 163.01 63.175 163.01 62.563C163.01 61.9397 163.118 61.3503 163.333 60.795C163.548 60.2397 163.854 59.7523 164.251 59.333C164.659 58.9023 165.152 58.5623 165.73 58.313C166.308 58.0637 166.96 57.939 167.685 57.939C168.41 57.939 169.056 58.0637 169.623 58.313C170.201 58.5623 170.688 58.9023 171.085 59.333C171.493 59.7523 171.805 60.2397 172.02 60.795C172.235 61.3503 172.343 61.9397 172.343 62.563C172.343 63.175 172.235 63.7587 172.02 64.314C171.805 64.8693 171.499 65.3623 171.102 65.793C170.705 66.2123 170.218 66.5467 169.64 66.796C169.062 67.0453 168.41 67.17 167.685 67.17ZM165.356 62.563C165.356 62.9597 165.413 63.3223 165.526 63.651C165.651 63.9683 165.815 64.246 166.019 64.484C166.234 64.722 166.484 64.909 166.767 65.045C167.05 65.1697 167.356 65.232 167.685 65.232C168.014 65.232 168.32 65.1697 168.603 65.045C168.886 64.909 169.13 64.722 169.334 64.484C169.549 64.246 169.714 63.9627 169.827 63.634C169.952 63.3053 170.014 62.9427 170.014 62.546C170.014 62.1607 169.952 61.8037 169.827 61.475C169.714 61.1463 169.549 60.863 169.334 60.625C169.13 60.387 168.886 60.2057 168.603 60.081C168.32 59.945 168.014 59.877 167.685 59.877C167.356 59.877 167.05 59.945 166.767 60.081C166.484 60.217 166.234 60.404 166.019 60.642C165.815 60.88 165.651 61.1633 165.526 61.492C165.413 61.8207 165.356 62.1777 165.356 62.563ZM187.549 67H185.271V62.002C185.271 61.288 185.146 60.7667 184.897 60.438C184.659 60.1093 184.324 59.945 183.894 59.945C183.44 59.945 183.015 60.1207 182.619 60.472C182.222 60.812 181.939 61.2597 181.769 61.815V67H179.491V62.002C179.491 61.288 179.366 60.7667 179.117 60.438C178.879 60.1093 178.544 59.945 178.114 59.945C177.672 59.945 177.247 60.115 176.839 60.455C176.442 60.795 176.159 61.2427 175.989 61.798V67H173.711V58.092H175.768V59.741C176.096 59.163 176.544 58.721 177.111 58.415C177.689 58.0977 178.346 57.939 179.083 57.939C179.831 57.939 180.409 58.1203 180.817 58.483C181.225 58.8457 181.485 59.2933 181.599 59.826C181.961 59.214 182.42 58.7493 182.976 58.432C183.531 58.1033 184.166 57.939 184.88 57.939C185.424 57.939 185.871 58.041 186.223 58.245C186.574 58.449 186.846 58.7153 187.039 59.044C187.231 59.3727 187.362 59.7467 187.43 60.166C187.509 60.5853 187.549 61.0103 187.549 61.441V67ZM193.493 67.17C192.779 67.17 192.133 67.051 191.555 66.813C190.977 66.5637 190.484 66.2293 190.076 65.81C189.668 65.3907 189.351 64.9033 189.124 64.348C188.909 63.7927 188.801 63.209 188.801 62.597C188.801 61.9623 188.909 61.3673 189.124 60.812C189.339 60.2453 189.651 59.7523 190.059 59.333C190.467 58.9023 190.96 58.5623 191.538 58.313C192.127 58.0637 192.785 57.939 193.51 57.939C194.235 57.939 194.881 58.0637 195.448 58.313C196.026 58.5623 196.513 58.8967 196.91 59.316C197.318 59.7353 197.624 60.2227 197.828 60.778C198.043 61.3333 198.151 61.9113 198.151 62.512C198.151 62.6593 198.145 62.801 198.134 62.937C198.134 63.073 198.123 63.1863 198.1 63.277H191.215C191.249 63.6283 191.334 63.94 191.47 64.212C191.606 64.484 191.782 64.7163 191.997 64.909C192.212 65.1017 192.456 65.249 192.728 65.351C193 65.453 193.283 65.504 193.578 65.504C194.031 65.504 194.456 65.3963 194.853 65.181C195.261 64.9543 195.539 64.6597 195.686 64.297L197.641 64.841C197.312 65.521 196.785 66.082 196.06 66.524C195.346 66.9547 194.49 67.17 193.493 67.17ZM195.805 61.798C195.748 61.1293 195.499 60.5967 195.057 60.2C194.626 59.792 194.099 59.588 193.476 59.588C193.17 59.588 192.881 59.6447 192.609 59.758C192.348 59.86 192.116 60.0073 191.912 60.2C191.708 60.3927 191.538 60.625 191.402 60.897C191.277 61.169 191.204 61.4693 191.181 61.798H195.805ZM204.673 60.064C203.981 60.0753 203.364 60.2113 202.82 60.472C202.276 60.7213 201.885 61.101 201.647 61.611V67H199.369V58.092H201.46V59.996C201.618 59.69 201.805 59.418 202.021 59.18C202.236 58.9307 202.468 58.7153 202.718 58.534C202.967 58.3527 203.216 58.2167 203.466 58.126C203.726 58.024 203.976 57.973 204.214 57.973C204.338 57.973 204.429 57.973 204.486 57.973C204.554 57.973 204.616 57.9787 204.673 57.99V60.064ZM208.762 60.88C208.762 60.1433 208.892 59.418 209.153 58.704C209.425 57.9787 209.816 57.3327 210.326 56.766C210.836 56.1993 211.459 55.7403 212.196 55.389C212.933 55.0377 213.771 54.862 214.712 54.862C215.823 54.862 216.78 55.1057 217.585 55.593C218.401 56.0803 219.007 56.715 219.404 57.497L217.602 58.738C217.443 58.398 217.251 58.1147 217.024 57.888C216.797 57.65 216.554 57.463 216.293 57.327C216.032 57.191 215.76 57.0947 215.477 57.038C215.194 56.97 214.916 56.936 214.644 56.936C214.055 56.936 213.539 57.055 213.097 57.293C212.666 57.531 212.304 57.8427 212.009 58.228C211.726 58.602 211.51 59.0327 211.363 59.52C211.216 59.996 211.142 60.472 211.142 60.948C211.142 61.4807 211.227 61.9963 211.397 62.495C211.567 62.9823 211.805 63.413 212.111 63.787C212.428 64.161 212.802 64.4613 213.233 64.688C213.675 64.9147 214.157 65.028 214.678 65.028C214.95 65.028 215.233 64.994 215.528 64.926C215.823 64.858 216.1 64.7503 216.361 64.603C216.633 64.4557 216.882 64.2687 217.109 64.042C217.336 63.804 217.517 63.5207 217.653 63.192L219.574 64.297C219.381 64.7503 219.104 65.1527 218.741 65.504C218.39 65.844 217.987 66.133 217.534 66.371C217.092 66.609 216.616 66.7903 216.106 66.915C215.596 67.0397 215.097 67.102 214.61 67.102C213.749 67.102 212.961 66.9207 212.247 66.558C211.533 66.1953 210.915 65.725 210.394 65.147C209.884 64.5577 209.482 63.8947 209.187 63.158C208.904 62.41 208.762 61.6507 208.762 60.88ZM223.187 67.17C222.756 67.17 222.354 67.102 221.98 66.966C221.606 66.8187 221.283 66.6203 221.011 66.371C220.739 66.1103 220.524 65.81 220.365 65.47C220.218 65.13 220.144 64.756 220.144 64.348C220.144 63.9287 220.235 63.5433 220.416 63.192C220.609 62.8293 220.869 62.5233 221.198 62.274C221.538 62.0247 221.94 61.832 222.405 61.696C222.87 61.5487 223.38 61.475 223.935 61.475C224.332 61.475 224.717 61.509 225.091 61.577C225.476 61.645 225.816 61.7413 226.111 61.866V61.356C226.111 60.7667 225.941 60.3133 225.601 59.996C225.272 59.6787 224.779 59.52 224.122 59.52C223.646 59.52 223.181 59.605 222.728 59.775C222.275 59.945 221.81 60.1943 221.334 60.523L220.637 59.078C221.782 58.3187 223.017 57.939 224.343 57.939C225.624 57.939 226.615 58.2563 227.318 58.891C228.032 59.5143 228.389 60.421 228.389 61.611V64.382C228.389 64.62 228.429 64.79 228.508 64.892C228.599 64.994 228.74 65.0507 228.933 65.062V67C228.548 67.0793 228.213 67.119 227.93 67.119C227.499 67.119 227.165 67.0227 226.927 66.83C226.7 66.6373 226.559 66.3823 226.502 66.065L226.451 65.572C226.054 66.0933 225.573 66.49 225.006 66.762C224.439 67.034 223.833 67.17 223.187 67.17ZM223.833 65.504C224.218 65.504 224.581 65.436 224.921 65.3C225.272 65.164 225.544 64.9827 225.737 64.756C225.986 64.5633 226.111 64.348 226.111 64.11V63.09C225.839 62.988 225.544 62.9087 225.227 62.852C224.91 62.784 224.604 62.75 224.309 62.75C223.72 62.75 223.238 62.886 222.864 63.158C222.49 63.4187 222.303 63.753 222.303 64.161C222.303 64.5463 222.45 64.8693 222.745 65.13C223.04 65.3793 223.402 65.504 223.833 65.504ZM235.652 60.064C234.961 60.0753 234.343 60.2113 233.799 60.472C233.255 60.7213 232.864 61.101 232.626 61.611V67H230.348V58.092H232.439V59.996C232.598 59.69 232.785 59.418 233 59.18C233.215 58.9307 233.448 58.7153 233.697 58.534C233.946 58.3527 234.196 58.2167 234.445 58.126C234.706 58.024 234.955 57.973 235.193 57.973C235.318 57.973 235.408 57.973 235.465 57.973C235.533 57.973 235.595 57.9787 235.652 57.99V60.064ZM240.435 67.17C239.721 67.17 239.075 67.051 238.497 66.813C237.919 66.5637 237.426 66.2293 237.018 65.81C236.61 65.3907 236.292 64.9033 236.066 64.348C235.85 63.7927 235.743 63.209 235.743 62.597C235.743 61.9623 235.85 61.3673 236.066 60.812C236.281 60.2453 236.593 59.7523 237.001 59.333C237.409 58.9023 237.902 58.5623 238.48 58.313C239.069 58.0637 239.726 57.939 240.452 57.939C241.177 57.939 241.823 58.0637 242.39 58.313C242.968 58.5623 243.455 58.8967 243.852 59.316C244.26 59.7353 244.566 60.2227 244.77 60.778C244.985 61.3333 245.093 61.9113 245.093 62.512C245.093 62.6593 245.087 62.801 245.076 62.937C245.076 63.073 245.064 63.1863 245.042 63.277H238.157C238.191 63.6283 238.276 63.94 238.412 64.212C238.548 64.484 238.723 64.7163 238.939 64.909C239.154 65.1017 239.398 65.249 239.67 65.351C239.942 65.453 240.225 65.504 240.52 65.504C240.973 65.504 241.398 65.3963 241.795 65.181C242.203 64.9543 242.48 64.6597 242.628 64.297L244.583 64.841C244.254 65.521 243.727 66.082 243.002 66.524C242.288 66.9547 241.432 67.17 240.435 67.17ZM242.747 61.798C242.69 61.1293 242.441 60.5967 241.999 60.2C241.568 59.792 241.041 59.588 240.418 59.588C240.112 59.588 239.823 59.6447 239.551 59.758C239.29 59.86 239.058 60.0073 238.854 60.2C238.65 60.3927 238.48 60.625 238.344 60.897C238.219 61.169 238.145 61.4693 238.123 61.798H242.747Z" fill="#202020"/>
<path fill-rule="evenodd" clip-rule="evenodd" d="M29.9101 65.8413C29.9101 66.3437 30.316 66.7495 30.8183 66.7495H35.3593V59.0946H29.9101V65.8413ZM37.1757 66.7495H41.7166C42.219 66.7495 42.6248 66.3437 42.6248 65.8413V59.0946H37.1757V66.7495ZM42.6248 54.5537H41.43C41.606 54.2103 41.7166 53.83 41.7166 53.4184C41.7166 52.0419 40.5956 50.9209 39.2191 50.9209C38.0385 50.9209 37.275 51.5254 36.2959 52.8593C35.3167 51.5254 34.5533 50.9209 33.3726 50.9209C31.9961 50.9209 30.8751 52.0419 30.8751 53.4184C30.8751 53.83 30.9829 54.2103 31.1617 54.5537H29.9101C29.4078 54.5537 29.002 54.9595 29.002 55.4619V57.7323C29.002 57.9821 29.2063 58.1864 29.456 58.1864H43.0789C43.3287 58.1864 43.533 57.9821 43.533 57.7323V55.4619C43.533 54.9595 43.1272 54.5537 42.6248 54.5537ZM33.3698 54.5537C32.7426 54.5537 32.2345 54.0456 32.2345 53.4184C32.2345 52.7912 32.7426 52.2832 33.3698 52.2832C33.9346 52.2832 34.3518 52.3768 35.8134 54.5537H33.3698H33.3698ZM39.2191 54.5537H36.7755C38.2343 52.3825 38.6401 52.2832 39.2191 52.2832C39.8463 52.2832 40.3544 52.7912 40.3544 53.4184C40.3544 54.0456 39.8463 54.5537 39.2191 54.5537Z" fill="#004CFF"/>
<path d="M31.648 11.22L35.104 20.886L38.524 11.22H41.134L36.148 24H34.06L29.038 11.22H31.648ZM45.2799 24.18C44.5119 24.18 43.8219 24.048 43.2099 23.784C42.5979 23.52 42.0759 23.166 41.6439 22.722C41.2239 22.266 40.8999 21.744 40.6719 21.156C40.4439 20.568 40.3299 19.95 40.3299 19.302C40.3299 18.642 40.4439 18.018 40.6719 17.43C40.8999 16.842 41.2239 16.326 41.6439 15.882C42.0759 15.426 42.5979 15.066 43.2099 14.802C43.8219 14.538 44.5119 14.406 45.2799 14.406C46.0479 14.406 46.7319 14.538 47.3319 14.802C47.9439 15.066 48.4599 15.426 48.8799 15.882C49.3119 16.326 49.6419 16.842 49.8699 17.43C50.0979 18.018 50.2119 18.642 50.2119 19.302C50.2119 19.95 50.0979 20.568 49.8699 21.156C49.6419 21.744 49.3179 22.266 48.8979 22.722C48.4779 23.166 47.9619 23.52 47.3499 23.784C46.7379 24.048 46.0479 24.18 45.2799 24.18ZM42.8139 19.302C42.8139 19.722 42.8739 20.106 42.9939 20.454C43.1259 20.79 43.2999 21.084 43.5159 21.336C43.7439 21.588 44.0079 21.786 44.3079 21.93C44.6079 22.062 44.9319 22.128 45.2799 22.128C45.6279 22.128 45.9519 22.062 46.2519 21.93C46.5519 21.786 46.8099 21.588 47.0259 21.336C47.2539 21.084 47.4279 20.784 47.5479 20.436C47.6799 20.088 47.7459 19.704 47.7459 19.284C47.7459 18.876 47.6799 18.498 47.5479 18.15C47.4279 17.802 47.2539 17.502 47.0259 17.25C46.8099 16.998 46.5519 16.806 46.2519 16.674C45.9519 16.53 45.6279 16.458 45.2799 16.458C44.9319 16.458 44.6079 16.53 44.3079 16.674C44.0079 16.818 43.7439 17.016 43.5159 17.268C43.2999 17.52 43.1259 17.82 42.9939 18.168C42.8739 18.516 42.8139 18.894 42.8139 19.302ZM54.5399 24.18C53.5679 24.18 52.8299 23.868 52.3259 23.244C51.8219 22.62 51.5699 21.696 51.5699 20.472V14.568H53.9819V19.95C53.9819 21.402 54.5039 22.128 55.5479 22.128C56.0159 22.128 56.4659 21.99 56.8979 21.714C57.3419 21.426 57.7019 20.994 57.9779 20.418V14.568H60.3899V21.228C60.3899 21.48 60.4319 21.66 60.5159 21.768C60.6119 21.876 60.7619 21.936 60.9659 21.948V24C60.7259 24.048 60.5219 24.078 60.3539 24.09C60.1979 24.102 60.0539 24.108 59.9219 24.108C59.4899 24.108 59.1359 24.012 58.8599 23.82C58.5959 23.616 58.4399 23.34 58.3919 22.992L58.3379 22.236C57.9179 22.884 57.3779 23.37 56.7179 23.694C56.0579 24.018 55.3319 24.18 54.5399 24.18ZM62.0128 19.284C62.0128 18.624 62.1268 18 62.3548 17.412C62.5828 16.824 62.9128 16.308 63.3448 15.864C63.7768 15.42 64.2988 15.066 64.9108 14.802C65.5228 14.538 66.2128 14.406 66.9808 14.406C68.0128 14.406 68.8888 14.628 69.6088 15.072C70.3408 15.516 70.8868 16.098 71.2468 16.818L68.8888 17.538C68.6848 17.19 68.4148 16.926 68.0788 16.746C67.7428 16.554 67.3708 16.458 66.9628 16.458C66.6148 16.458 66.2908 16.53 65.9908 16.674C65.6908 16.806 65.4268 16.998 65.1988 17.25C64.9828 17.49 64.8088 17.784 64.6768 18.132C64.5568 18.48 64.4968 18.864 64.4968 19.284C64.4968 19.704 64.5628 20.088 64.6948 20.436C64.8268 20.784 65.0008 21.084 65.2168 21.336C65.4448 21.588 65.7088 21.786 66.0088 21.93C66.3088 22.062 66.6268 22.128 66.9628 22.128C67.3948 22.128 67.7908 22.02 68.1508 21.804C68.5228 21.588 68.7808 21.324 68.9248 21.012L71.2828 21.732C70.9588 22.452 70.4248 23.04 69.6808 23.496C68.9368 23.952 68.0428 24.18 66.9988 24.18C66.2308 24.18 65.5408 24.048 64.9288 23.784C64.3168 23.52 63.7948 23.166 63.3628 22.722C62.9308 22.266 62.5948 21.744 62.3548 21.156C62.1268 20.556 62.0128 19.932 62.0128 19.284ZM81.353 24H78.941V18.708C78.941 17.964 78.803 17.418 78.527 17.07C78.251 16.71 77.861 16.53 77.357 16.53C77.141 16.53 76.913 16.578 76.673 16.674C76.433 16.77 76.205 16.908 75.989 17.088C75.773 17.256 75.575 17.46 75.395 17.7C75.215 17.94 75.083 18.204 74.999 18.492V24H72.587V10.86H74.999V16.314C75.347 15.702 75.815 15.234 76.403 14.91C77.003 14.574 77.663 14.406 78.383 14.406C78.995 14.406 79.493 14.514 79.877 14.73C80.261 14.934 80.561 15.21 80.777 15.558C80.993 15.906 81.143 16.302 81.227 16.746C81.311 17.19 81.353 17.646 81.353 18.114V24ZM87.6443 24.18C86.8883 24.18 86.2043 24.054 85.5923 23.802C84.9803 23.538 84.4583 23.184 84.0263 22.74C83.5943 22.296 83.2583 21.78 83.0183 21.192C82.7903 20.604 82.6763 19.986 82.6763 19.338C82.6763 18.666 82.7903 18.036 83.0183 17.448C83.2463 16.848 83.5763 16.326 84.0083 15.882C84.4403 15.426 84.9623 15.066 85.5743 14.802C86.1983 14.538 86.8943 14.406 87.6623 14.406C88.4303 14.406 89.1143 14.538 89.7143 14.802C90.3263 15.066 90.8423 15.42 91.2623 15.864C91.6943 16.308 92.0183 16.824 92.2343 17.412C92.4623 18 92.5763 18.612 92.5763 19.248C92.5763 19.404 92.5703 19.554 92.5583 19.698C92.5583 19.842 92.5463 19.962 92.5223 20.058H85.2323C85.2683 20.43 85.3583 20.76 85.5023 21.048C85.6463 21.336 85.8323 21.582 86.0603 21.786C86.2883 21.99 86.5463 22.146 86.8343 22.254C87.1223 22.362 87.4223 22.416 87.7343 22.416C88.2143 22.416 88.6643 22.302 89.0843 22.074C89.5163 21.834 89.8103 21.522 89.9663 21.138L92.0363 21.714C91.6883 22.434 91.1303 23.028 90.3623 23.496C89.6063 23.952 88.7003 24.18 87.6443 24.18ZM90.0923 18.492C90.0323 17.784 89.7683 17.22 89.3003 16.8C88.8443 16.368 88.2863 16.152 87.6263 16.152C87.3023 16.152 86.9963 16.212 86.7083 16.332C86.4323 16.44 86.1863 16.596 85.9703 16.8C85.7543 17.004 85.5743 17.25 85.4303 17.538C85.2983 17.826 85.2203 18.144 85.1963 18.492H90.0923ZM99.4817 16.656C98.7497 16.668 98.0957 16.812 97.5197 17.088C96.9437 17.352 96.5297 17.754 96.2777 18.294V24H93.8657V14.568H96.0797V16.584C96.2477 16.26 96.4457 15.972 96.6737 15.72C96.9017 15.456 97.1477 15.228 97.4117 15.036C97.6757 14.844 97.9397 14.7 98.2037 14.604C98.4797 14.496 98.7437 14.442 98.9957 14.442C99.1277 14.442 99.2237 14.442 99.2837 14.442C99.3557 14.442 99.4217 14.448 99.4817 14.46V16.656Z" fill="#004CFF"/>
<rect x="260.5" y="67.5" width="78" height="25" rx="5.5" fill="#004CFF" stroke="#0042E0"/>
<path d="M269.675 80.96C269.675 80.3627 269.778 79.77 269.983 79.182C270.198 78.5847 270.506 78.0527 270.907 77.586C271.318 77.11 271.817 76.7273 272.405 76.438C272.993 76.1487 273.661 76.004 274.407 76.004C275.294 76.004 276.055 76.2047 276.689 76.606C277.324 77.0073 277.795 77.53 278.103 78.174L277.109 78.818C276.96 78.5007 276.778 78.2347 276.563 78.02C276.358 77.8053 276.129 77.6327 275.877 77.502C275.635 77.3713 275.383 77.278 275.121 77.222C274.86 77.166 274.603 77.138 274.351 77.138C273.801 77.138 273.311 77.2547 272.881 77.488C272.461 77.712 272.107 78.0107 271.817 78.384C271.528 78.748 271.309 79.1633 271.159 79.63C271.019 80.0873 270.949 80.5493 270.949 81.016C270.949 81.5387 271.033 82.038 271.201 82.514C271.379 82.9807 271.621 83.396 271.929 83.76C272.237 84.124 272.601 84.4133 273.021 84.628C273.441 84.8427 273.899 84.95 274.393 84.95C274.655 84.95 274.921 84.9173 275.191 84.852C275.471 84.7867 275.737 84.684 275.989 84.544C276.241 84.3947 276.475 84.2127 276.689 83.998C276.913 83.774 277.095 83.508 277.235 83.2L278.285 83.774C278.127 84.1473 277.903 84.4787 277.613 84.768C277.333 85.048 277.011 85.286 276.647 85.482C276.293 85.678 275.915 85.8273 275.513 85.93C275.112 86.0327 274.72 86.084 274.337 86.084C273.656 86.084 273.031 85.9347 272.461 85.636C271.892 85.3373 271.397 84.95 270.977 84.474C270.567 83.9887 270.245 83.4427 270.011 82.836C269.787 82.22 269.675 81.5947 269.675 80.96ZM282.718 86.14C282.168 86.14 281.664 86.0373 281.206 85.832C280.758 85.6267 280.371 85.3513 280.044 85.006C279.727 84.6607 279.48 84.2593 279.302 83.802C279.125 83.3447 279.036 82.864 279.036 82.36C279.036 81.8467 279.125 81.3613 279.302 80.904C279.489 80.4467 279.741 80.0453 280.058 79.7C280.385 79.3547 280.772 79.0793 281.22 78.874C281.678 78.6687 282.177 78.566 282.718 78.566C283.26 78.566 283.759 78.6687 284.216 78.874C284.674 79.0793 285.061 79.3547 285.378 79.7C285.705 80.0453 285.957 80.4467 286.134 80.904C286.321 81.3613 286.414 81.8467 286.414 82.36C286.414 82.864 286.326 83.3447 286.148 83.802C285.971 84.2593 285.719 84.6607 285.392 85.006C285.066 85.3513 284.674 85.6267 284.216 85.832C283.768 86.0373 283.269 86.14 282.718 86.14ZM280.296 82.374C280.296 82.7567 280.357 83.1113 280.478 83.438C280.609 83.7647 280.782 84.0493 280.996 84.292C281.22 84.5347 281.477 84.726 281.766 84.866C282.065 85.006 282.382 85.076 282.718 85.076C283.054 85.076 283.367 85.006 283.656 84.866C283.955 84.726 284.216 84.5347 284.44 84.292C284.664 84.04 284.837 83.7507 284.958 83.424C285.089 83.088 285.154 82.7287 285.154 82.346C285.154 81.9727 285.089 81.6227 284.958 81.296C284.837 80.96 284.664 80.6707 284.44 80.428C284.216 80.176 283.955 79.98 283.656 79.84C283.367 79.7 283.054 79.63 282.718 79.63C282.382 79.63 282.065 79.7047 281.766 79.854C281.477 79.994 281.22 80.19 280.996 80.442C280.782 80.6847 280.609 80.974 280.478 81.31C280.357 81.6367 280.296 81.9913 280.296 82.374ZM287.795 75.78H289.027V84.11C289.027 84.3807 289.097 84.5953 289.237 84.754C289.386 84.9033 289.592 84.978 289.853 84.978C289.956 84.978 290.077 84.964 290.217 84.936C290.357 84.8987 290.488 84.8567 290.609 84.81L290.805 85.804C290.6 85.888 290.357 85.958 290.077 86.014C289.797 86.07 289.55 86.098 289.335 86.098C288.859 86.098 288.481 85.9627 288.201 85.692C287.93 85.4213 287.795 85.0433 287.795 84.558V75.78ZM291.661 75.78H292.893V84.11C292.893 84.3807 292.963 84.5953 293.103 84.754C293.252 84.9033 293.458 84.978 293.719 84.978C293.822 84.978 293.943 84.964 294.083 84.936C294.223 84.8987 294.354 84.8567 294.475 84.81L294.671 85.804C294.466 85.888 294.223 85.958 293.943 86.014C293.663 86.07 293.416 86.098 293.201 86.098C292.725 86.098 292.347 85.9627 292.067 85.692C291.796 85.4213 291.661 85.0433 291.661 84.558V75.78ZM298.733 86.14C298.182 86.14 297.678 86.042 297.221 85.846C296.764 85.6407 296.372 85.3653 296.045 85.02C295.718 84.6747 295.462 84.2733 295.275 83.816C295.098 83.3493 295.009 82.8593 295.009 82.346C295.009 81.8327 295.098 81.3473 295.275 80.89C295.462 80.4327 295.718 80.0313 296.045 79.686C296.381 79.3407 296.778 79.07 297.235 78.874C297.692 78.6687 298.196 78.566 298.747 78.566C299.298 78.566 299.797 78.6687 300.245 78.874C300.702 79.0793 301.09 79.3547 301.407 79.7C301.724 80.036 301.967 80.4327 302.135 80.89C302.312 81.338 302.401 81.8047 302.401 82.29C302.401 82.3927 302.396 82.486 302.387 82.57C302.387 82.654 302.382 82.7193 302.373 82.766H296.311C296.339 83.13 296.423 83.4613 296.563 83.76C296.703 84.0587 296.885 84.3153 297.109 84.53C297.333 84.7447 297.585 84.9127 297.865 85.034C298.154 85.1553 298.458 85.216 298.775 85.216C298.999 85.216 299.218 85.188 299.433 85.132C299.648 85.0667 299.848 84.9827 300.035 84.88C300.222 84.7773 300.385 84.6513 300.525 84.502C300.674 84.3527 300.786 84.1847 300.861 83.998L301.925 84.292C301.804 84.5627 301.636 84.81 301.421 85.034C301.216 85.258 300.973 85.454 300.693 85.622C300.422 85.7807 300.119 85.9067 299.783 86C299.447 86.0933 299.097 86.14 298.733 86.14ZM301.239 81.856C301.211 81.5107 301.122 81.1933 300.973 80.904C300.833 80.6053 300.651 80.3533 300.427 80.148C300.212 79.9427 299.96 79.784 299.671 79.672C299.382 79.5507 299.074 79.49 298.747 79.49C298.42 79.49 298.112 79.5507 297.823 79.672C297.534 79.784 297.277 79.9473 297.053 80.162C296.838 80.3673 296.661 80.6147 296.521 80.904C296.39 81.1933 296.311 81.5107 296.283 81.856H301.239ZM303.14 82.332C303.14 81.8187 303.229 81.3333 303.406 80.876C303.584 80.4187 303.836 80.022 304.162 79.686C304.489 79.3407 304.876 79.07 305.324 78.874C305.782 78.6687 306.29 78.566 306.85 78.566C307.578 78.566 308.204 78.7293 308.726 79.056C309.258 79.3733 309.66 79.8027 309.93 80.344L308.726 80.722C308.54 80.3767 308.278 80.1107 307.942 79.924C307.606 79.728 307.233 79.63 306.822 79.63C306.486 79.63 306.169 79.7 305.87 79.84C305.572 79.9707 305.315 80.1573 305.1 80.4C304.886 80.6427 304.713 80.9273 304.582 81.254C304.461 81.5807 304.4 81.94 304.4 82.332C304.4 82.7147 304.466 83.074 304.596 83.41C304.727 83.746 304.9 84.04 305.114 84.292C305.338 84.5347 305.595 84.726 305.884 84.866C306.183 85.006 306.5 85.076 306.836 85.076C307.051 85.076 307.261 85.048 307.466 84.992C307.681 84.9267 307.872 84.8427 308.04 84.74C308.218 84.6373 308.372 84.5207 308.502 84.39C308.633 84.25 308.726 84.1007 308.782 83.942L309.986 84.306C309.874 84.5767 309.716 84.824 309.51 85.048C309.314 85.272 309.081 85.4633 308.81 85.622C308.54 85.7807 308.236 85.9067 307.9 86C307.574 86.0933 307.228 86.14 306.864 86.14C306.314 86.14 305.81 86.0373 305.352 85.832C304.895 85.6267 304.503 85.3513 304.176 85.006C303.85 84.6607 303.593 84.2593 303.406 83.802C303.229 83.3353 303.14 82.8453 303.14 82.332ZM315.022 85.636C314.948 85.6733 314.85 85.72 314.728 85.776C314.607 85.8227 314.467 85.874 314.308 85.93C314.159 85.9767 313.991 86.014 313.804 86.042C313.627 86.0793 313.44 86.098 313.244 86.098C312.796 86.098 312.409 85.9767 312.082 85.734C311.756 85.482 311.592 85.0947 311.592 84.572V79.658H310.598V78.692H311.592V76.256H312.824V78.692H314.462V79.658H312.824V84.194C312.843 84.4647 312.932 84.6607 313.09 84.782C313.249 84.9033 313.436 84.964 313.65 84.964C313.893 84.964 314.112 84.9267 314.308 84.852C314.514 84.768 314.654 84.7027 314.728 84.656L315.022 85.636ZM319.162 86.14C318.612 86.14 318.108 86.042 317.65 85.846C317.193 85.6407 316.801 85.3653 316.474 85.02C316.148 84.6747 315.891 84.2733 315.704 83.816C315.527 83.3493 315.438 82.8593 315.438 82.346C315.438 81.8327 315.527 81.3473 315.704 80.89C315.891 80.4327 316.148 80.0313 316.474 79.686C316.81 79.3407 317.207 79.07 317.664 78.874C318.122 78.6687 318.626 78.566 319.176 78.566C319.727 78.566 320.226 78.6687 320.674 78.874C321.132 79.0793 321.519 79.3547 321.836 79.7C322.154 80.036 322.396 80.4327 322.564 80.89C322.742 81.338 322.83 81.8047 322.83 82.29C322.83 82.3927 322.826 82.486 322.816 82.57C322.816 82.654 322.812 82.7193 322.802 82.766H316.74C316.768 83.13 316.852 83.4613 316.992 83.76C317.132 84.0587 317.314 84.3153 317.538 84.53C317.762 84.7447 318.014 84.9127 318.294 85.034C318.584 85.1553 318.887 85.216 319.204 85.216C319.428 85.216 319.648 85.188 319.862 85.132C320.077 85.0667 320.278 84.9827 320.464 84.88C320.651 84.7773 320.814 84.6513 320.954 84.502C321.104 84.3527 321.216 84.1847 321.29 83.998L322.354 84.292C322.233 84.5627 322.065 84.81 321.85 85.034C321.645 85.258 321.402 85.454 321.122 85.622C320.852 85.7807 320.548 85.9067 320.212 86C319.876 86.0933 319.526 86.14 319.162 86.14ZM321.668 81.856C321.64 81.5107 321.552 81.1933 321.402 80.904C321.262 80.6053 321.08 80.3533 320.856 80.148C320.642 79.9427 320.39 79.784 320.1 79.672C319.811 79.5507 319.503 79.49 319.176 79.49C318.85 79.49 318.542 79.5507 318.252 79.672C317.963 79.784 317.706 79.9473 317.482 80.162C317.268 80.3673 317.09 80.6147 316.95 80.904C316.82 81.1933 316.74 81.5107 316.712 81.856H321.668ZM327.07 86.14C326.566 86.14 326.099 86.0373 325.67 85.832C325.241 85.6267 324.872 85.3513 324.564 85.006C324.256 84.6607 324.013 84.2593 323.836 83.802C323.668 83.3447 323.584 82.864 323.584 82.36C323.584 81.8467 323.663 81.3613 323.822 80.904C323.99 80.4373 324.219 80.0313 324.508 79.686C324.807 79.3407 325.157 79.07 325.558 78.874C325.969 78.6687 326.417 78.566 326.902 78.566C327.49 78.566 328.013 78.72 328.47 79.028C328.937 79.336 329.305 79.7093 329.576 80.148V75.78H330.808V84.488C330.808 84.7773 330.939 84.9267 331.2 84.936V86C331.069 86.0187 330.962 86.0327 330.878 86.042C330.803 86.0513 330.729 86.056 330.654 86.056C330.411 86.056 330.197 85.9767 330.01 85.818C329.833 85.65 329.744 85.4587 329.744 85.244V84.628C329.455 85.104 329.067 85.4773 328.582 85.748C328.106 86.0093 327.602 86.14 327.07 86.14ZM327.364 85.076C327.588 85.076 327.817 85.034 328.05 84.95C328.293 84.866 328.517 84.7493 328.722 84.6C328.937 84.4507 329.119 84.278 329.268 84.082C329.427 83.8767 329.529 83.662 329.576 83.438V81.338C329.492 81.1047 329.366 80.8853 329.198 80.68C329.03 80.4653 328.839 80.2833 328.624 80.134C328.419 79.9753 328.195 79.854 327.952 79.77C327.719 79.6767 327.485 79.63 327.252 79.63C326.888 79.63 326.557 79.7093 326.258 79.868C325.969 80.0173 325.717 80.2227 325.502 80.484C325.297 80.736 325.138 81.03 325.026 81.366C324.914 81.6927 324.858 82.0287 324.858 82.374C324.858 82.738 324.923 83.088 325.054 83.424C325.185 83.7507 325.362 84.0353 325.586 84.278C325.81 84.5207 326.071 84.7167 326.37 84.866C326.678 85.006 327.009 85.076 327.364 85.076Z" fill="white"/>
</g>
<defs>
<filter id="filter0_d_0_2005" x="4.00098" y="-3" width="348" height="112" filterUnits="userSpaceOnUse" color-interpolation-filters="sRGB">
<feFlood flood-opacity="0" result="BackgroundImageFix"/>
<feColorMatrix in="SourceAlpha" type="matrix" values="0 0 0 0 0 0 0 0 0 0 0 0 0 0 0 0 0 0 127 0" result="hardAlpha"/>
<feOffset dy="3"/>
<feGaussianBlur stdDeviation="3"/>
<feColorMatrix type="matrix" values="0 0 0 0 0 0 0 0 0 0 0 0 0 0 0 0 0 0 0.160784 0"/>
<feBlend mode="normal" in2="BackgroundImageFix" result="effect1_dropShadow_0_2005"/>
<feBlend mode="normal" in="SourceGraphic" in2="effect1_dropShadow_0_2005" result="shape"/>
</filter>
<clipPath id="clip0_0_2005">
<rect width="356" height="100" fill="white" transform="translate(0.000976562)"/>
</clipPath>
<clipPath id="clip1_0_2005">
<rect width="100" height="19" fill="white" transform="translate(240 7)"/>
</clipPath>
</defs>
</svg>
