<svg width="356" height="100" viewBox="0 0 356 100" fill="none" xmlns="http://www.w3.org/2000/svg">
<g clip-path="url(#clip0_0_2024)">
<g filter="url(#filter0_d_0_2024)">
<mask id="path-1-inside-1_0_2024" fill="white">
<path fill-rule="evenodd" clip-rule="evenodd" d="M10.001 9C10.001 4.02943 14.0304 0 19.001 0H337.001C341.972 0 346.001 4.02944 346.001 9V40C340.478 40 336.001 44.4772 336.001 50C336.001 55.5228 340.478 60 346.001 60V91C346.001 95.9706 341.972 100 337.001 100H19.001C14.0304 100 10.001 95.9706 10.001 91V60C15.5238 60 20.001 55.5228 20.001 50C20.001 44.4772 15.5238 40 10.001 40V9Z"/>
</mask>
<path fill-rule="evenodd" clip-rule="evenodd" d="M10.001 9C10.001 4.02943 14.0304 0 19.001 0H337.001C341.972 0 346.001 4.02944 346.001 9V40C340.478 40 336.001 44.4772 336.001 50C336.001 55.5228 340.478 60 346.001 60V91C346.001 95.9706 341.972 100 337.001 100H19.001C14.0304 100 10.001 95.9706 10.001 91V60C15.5238 60 20.001 55.5228 20.001 50C20.001 44.4772 15.5238 40 10.001 40V9Z" fill="white"/>
<path d="M346.001 40V41H347.001V40H346.001ZM346.001 60H347.001V59H346.001V60ZM10.001 60V59H9.00098V60H10.001ZM10.001 40H9.00098V41H10.001V40ZM19.001 -1C13.4781 -1 9.00098 3.47715 9.00098 9H11.001C11.001 4.58172 14.5827 1 19.001 1V-1ZM337.001 -1H19.001V1H337.001V-1ZM347.001 9C347.001 3.47715 342.524 -1 337.001 -1V1C341.419 1 345.001 4.58172 345.001 9H347.001ZM347.001 40V9H345.001V40H347.001ZM346.001 39C339.926 39 335.001 43.9249 335.001 50H337.001C337.001 45.0294 341.03 41 346.001 41V39ZM335.001 50C335.001 56.0751 339.926 61 346.001 61V59C341.03 59 337.001 54.9706 337.001 50H335.001ZM347.001 91V60H345.001V91H347.001ZM337.001 101C342.524 101 347.001 96.5229 347.001 91H345.001C345.001 95.4183 341.419 99 337.001 99V101ZM19.001 101H337.001V99H19.001V101ZM9.00098 91C9.00098 96.5229 13.4781 101 19.001 101V99C14.5827 99 11.001 95.4183 11.001 91H9.00098ZM9.00098 60V91H11.001V60H9.00098ZM19.001 50C19.001 54.9706 14.9715 59 10.001 59V61C16.0761 61 21.001 56.0751 21.001 50H19.001ZM10.001 41C14.9715 41 19.001 45.0294 19.001 50H21.001C21.001 43.9249 16.0761 39 10.001 39V41ZM9.00098 9V40H11.001V9H9.00098Z" fill="#004CFF" mask="url(#path-1-inside-1_0_2024)"/>
</g>
<path d="M33.01 80.648C33.538 80.648 34.002 80.76 34.402 80.984C34.802 81.208 35.11 81.524 35.326 81.932C35.55 82.34 35.662 82.808 35.662 83.336C35.662 83.88 35.538 84.36 35.29 84.776C35.05 85.192 34.702 85.516 34.246 85.748C33.798 85.972 33.274 86.084 32.674 86.084C32.154 86.084 31.638 85.992 31.126 85.808C30.622 85.624 30.202 85.376 29.866 85.064L30.298 84.152C31.058 84.768 31.854 85.076 32.686 85.076C33.246 85.076 33.682 84.928 33.994 84.632C34.306 84.328 34.462 83.904 34.462 83.36C34.462 82.84 34.306 82.424 33.994 82.112C33.682 81.8 33.266 81.644 32.746 81.644C32.002 81.644 31.39 81.932 30.91 82.508H30.118V77.54H35.302V78.536H31.342V81.2C31.782 80.832 32.338 80.648 33.01 80.648ZM39.7493 86.312L38.9093 85.832L43.8893 77.228L44.7293 77.708L39.7493 86.312ZM38.8733 82.604C38.2253 82.604 37.7173 82.384 37.3493 81.944C36.9813 81.504 36.7973 80.86 36.7973 80.012C36.7973 79.164 36.9813 78.524 37.3493 78.092C37.7173 77.652 38.2253 77.432 38.8733 77.432C39.5293 77.432 40.0413 77.652 40.4093 78.092C40.7773 78.524 40.9613 79.164 40.9613 80.012C40.9613 80.868 40.7773 81.516 40.4093 81.956C40.0413 82.388 39.5293 82.604 38.8733 82.604ZM38.8733 81.788C39.2253 81.788 39.4853 81.648 39.6533 81.368C39.8213 81.08 39.9053 80.628 39.9053 80.012C39.9053 79.404 39.8213 78.96 39.6533 78.68C39.4853 78.4 39.2253 78.26 38.8733 78.26C38.5213 78.26 38.2613 78.4 38.0933 78.68C37.9333 78.952 37.8533 79.396 37.8533 80.012C37.8533 80.628 37.9333 81.08 38.0933 81.368C38.2613 81.648 38.5213 81.788 38.8733 81.788ZM44.7653 86.084C44.1093 86.084 43.5973 85.868 43.2293 85.436C42.8613 84.996 42.6773 84.348 42.6773 83.492C42.6773 82.644 42.8613 82.004 43.2293 81.572C43.5973 81.132 44.1093 80.912 44.7653 80.912C45.4133 80.912 45.9213 81.132 46.2893 81.572C46.6653 82.004 46.8533 82.644 46.8533 83.492C46.8533 84.34 46.6693 84.984 46.3013 85.424C45.9333 85.864 45.4213 86.084 44.7653 86.084ZM44.7653 85.268C45.1173 85.268 45.3733 85.128 45.5333 84.848C45.7013 84.56 45.7853 84.108 45.7853 83.492C45.7853 82.884 45.7013 82.44 45.5333 82.16C45.3653 81.872 45.1093 81.728 44.7653 81.728C44.4133 81.728 44.1533 81.868 43.9853 82.148C43.8173 82.428 43.7333 82.876 43.7333 83.492C43.7333 84.108 43.8173 84.56 43.9853 84.848C44.1533 85.128 44.4133 85.268 44.7653 85.268ZM53.9836 86.084C53.4076 86.084 52.8996 85.96 52.4596 85.712C52.0276 85.464 51.6916 85.112 51.4516 84.656C51.2196 84.192 51.1036 83.656 51.1036 83.048C51.1036 82.432 51.2196 81.896 51.4516 81.44C51.6916 80.976 52.0276 80.62 52.4596 80.372C52.8996 80.124 53.4076 80 53.9836 80C54.5596 80 55.0636 80.124 55.4956 80.372C55.9356 80.62 56.2716 80.976 56.5036 81.44C56.7436 81.896 56.8636 82.432 56.8636 83.048C56.8636 83.656 56.7436 84.192 56.5036 84.656C56.2716 85.112 55.9356 85.464 55.4956 85.712C55.0636 85.96 54.5596 86.084 53.9836 86.084ZM53.9836 85.124C54.5196 85.124 54.9276 84.948 55.2076 84.596C55.4956 84.244 55.6396 83.728 55.6396 83.048C55.6396 82.376 55.4956 81.864 55.2076 81.512C54.9196 81.152 54.5116 80.972 53.9836 80.972C53.4556 80.972 53.0476 81.152 52.7596 81.512C52.4716 81.864 52.3276 82.376 52.3276 83.048C52.3276 83.728 52.4676 84.244 52.7476 84.596C53.0356 84.948 53.4476 85.124 53.9836 85.124ZM59.7736 80.144H61.3816V81.08H59.7736V86H58.5616V81.08H57.4216V80.144H58.5616V80.036C58.5616 79.228 58.7656 78.62 59.1736 78.212C59.5896 77.804 60.2216 77.576 61.0696 77.528L61.6096 77.504L61.6816 78.416L61.1296 78.452C60.6496 78.476 60.3016 78.6 60.0856 78.824C59.8776 79.048 59.7736 79.388 59.7736 79.844V80.144ZM63.8283 80.144H65.4363V81.08H63.8283V86H62.6163V81.08H61.4763V80.144H62.6163V80.036C62.6163 79.228 62.8203 78.62 63.2283 78.212C63.6443 77.804 64.2763 77.576 65.1243 77.528L65.6643 77.504L65.7363 78.416L65.1843 78.452C64.7043 78.476 64.3563 78.6 64.1403 78.824C63.9323 79.048 63.8283 79.388 63.8283 79.844V80.144ZM71.0939 80.144H72.7019V81.08H71.0939V86H69.8819V81.08H68.7419V80.144H69.8819V80.036C69.8819 79.228 70.0859 78.62 70.4939 78.212C70.9099 77.804 71.5419 77.576 72.3899 77.528L72.9299 77.504L73.0019 78.416L72.4499 78.452C71.9699 78.476 71.6219 78.6 71.4059 78.824C71.1979 79.048 71.0939 79.388 71.0939 79.844V80.144ZM76.0969 86.084C75.5209 86.084 75.0129 85.96 74.5729 85.712C74.1409 85.464 73.8049 85.112 73.5649 84.656C73.3329 84.192 73.2169 83.656 73.2169 83.048C73.2169 82.432 73.3329 81.896 73.5649 81.44C73.8049 80.976 74.1409 80.62 74.5729 80.372C75.0129 80.124 75.5209 80 76.0969 80C76.6729 80 77.1769 80.124 77.6089 80.372C78.0489 80.62 78.3849 80.976 78.6169 81.44C78.8569 81.896 78.9769 82.432 78.9769 83.048C78.9769 83.656 78.8569 84.192 78.6169 84.656C78.3849 85.112 78.0489 85.464 77.6089 85.712C77.1769 85.96 76.6729 86.084 76.0969 86.084ZM76.0969 85.124C76.6329 85.124 77.0409 84.948 77.3209 84.596C77.6089 84.244 77.7529 83.728 77.7529 83.048C77.7529 82.376 77.6089 81.864 77.3209 81.512C77.0329 81.152 76.6249 80.972 76.0969 80.972C75.5689 80.972 75.1609 81.152 74.8729 81.512C74.5849 81.864 74.4409 82.376 74.4409 83.048C74.4409 83.728 74.5809 84.244 74.8609 84.596C75.1489 84.948 75.5609 85.124 76.0969 85.124ZM83.8903 81.02L83.1583 81.092C82.5823 81.148 82.1663 81.324 81.9103 81.62C81.6623 81.916 81.5383 82.292 81.5383 82.748V86H80.3263V80.144H81.5023V81.164C81.8143 80.476 82.4503 80.096 83.4103 80.024L83.8063 80L83.8903 81.02ZM92.0369 80.156H93.2489L89.7569 88.16H88.5329L89.5529 85.856L87.0929 80.156H88.3649L90.1889 84.632L92.0369 80.156ZM96.5813 86.084C96.0053 86.084 95.4973 85.96 95.0573 85.712C94.6253 85.464 94.2893 85.112 94.0493 84.656C93.8173 84.192 93.7013 83.656 93.7013 83.048C93.7013 82.432 93.8173 81.896 94.0493 81.44C94.2893 80.976 94.6253 80.62 95.0573 80.372C95.4973 80.124 96.0053 80 96.5813 80C97.1573 80 97.6613 80.124 98.0933 80.372C98.5333 80.62 98.8693 80.976 99.1013 81.44C99.3413 81.896 99.4613 82.432 99.4613 83.048C99.4613 83.656 99.3413 84.192 99.1013 84.656C98.8693 85.112 98.5333 85.464 98.0933 85.712C97.6613 85.96 97.1573 86.084 96.5813 86.084ZM96.5813 85.124C97.1173 85.124 97.5253 84.948 97.8053 84.596C98.0933 84.244 98.2373 83.728 98.2373 83.048C98.2373 82.376 98.0933 81.864 97.8053 81.512C97.5173 81.152 97.1093 80.972 96.5813 80.972C96.0533 80.972 95.6453 81.152 95.3573 81.512C95.0693 81.864 94.9253 82.376 94.9253 83.048C94.9253 83.728 95.0653 84.244 95.3453 84.596C95.6333 84.948 96.0453 85.124 96.5813 85.124ZM105.947 80.144V86H104.771V85.052C104.587 85.388 104.331 85.644 104.003 85.82C103.683 85.996 103.323 86.084 102.923 86.084C101.499 86.084 100.787 85.3 100.787 83.732V80.144H101.999V83.72C101.999 84.192 102.095 84.54 102.287 84.764C102.479 84.988 102.775 85.1 103.175 85.1C103.647 85.1 104.023 84.948 104.303 84.644C104.591 84.34 104.735 83.936 104.735 83.432V80.144H105.947ZM111.207 81.02L110.475 81.092C109.899 81.148 109.483 81.324 109.227 81.62C108.979 81.916 108.855 82.292 108.855 82.748V86H107.643V80.144H108.819V81.164C109.131 80.476 109.767 80.096 110.727 80.024L111.123 80L111.207 81.02ZM118.357 80C119.757 80 120.457 80.788 120.457 82.364V86H119.245V82.424C119.245 81.928 119.145 81.564 118.945 81.332C118.753 81.1 118.449 80.984 118.033 80.984C117.545 80.984 117.153 81.136 116.857 81.44C116.561 81.744 116.413 82.152 116.413 82.664V86H115.201V80.144H116.389V81.08C116.581 80.728 116.849 80.46 117.193 80.276C117.537 80.092 117.925 80 118.357 80ZM127.131 83.276H122.991C123.079 84.516 123.695 85.136 124.839 85.136C125.511 85.136 126.119 84.916 126.663 84.476L127.035 85.328C126.763 85.56 126.427 85.744 126.027 85.88C125.627 86.016 125.219 86.084 124.803 86.084C123.867 86.084 123.127 85.816 122.583 85.28C122.047 84.744 121.779 84.004 121.779 83.06C121.779 82.46 121.895 81.928 122.127 81.464C122.367 81 122.699 80.64 123.123 80.384C123.555 80.128 124.043 80 124.587 80C125.379 80 125.999 80.256 126.447 80.768C126.903 81.28 127.131 81.988 127.131 82.892V83.276ZM124.611 80.888C124.147 80.888 123.775 81.036 123.495 81.332C123.223 81.62 123.059 82.036 123.003 82.58H126.087C126.063 82.036 125.923 81.62 125.667 81.332C125.419 81.036 125.067 80.888 124.611 80.888ZM131.42 82.988L133.868 86H132.416L130.712 83.864L129.02 86H127.568L130.016 82.988L127.7 80.144H129.164L130.712 82.124L132.272 80.144H133.724L131.42 82.988ZM137.485 85.148C137.669 85.148 137.849 85.136 138.025 85.112L137.965 86.036C137.765 86.068 137.557 86.084 137.341 86.084C136.581 86.084 136.013 85.9 135.637 85.532C135.269 85.156 135.085 84.616 135.085 83.912V81.08H133.945V80.144H135.085V78.38H136.297V80.144H137.905V81.08H136.297V83.864C136.297 84.72 136.693 85.148 137.485 85.148ZM144.652 86.084C144.076 86.084 143.568 85.96 143.128 85.712C142.696 85.464 142.36 85.112 142.12 84.656C141.888 84.192 141.772 83.656 141.772 83.048C141.772 82.432 141.888 81.896 142.12 81.44C142.36 80.976 142.696 80.62 143.128 80.372C143.568 80.124 144.076 80 144.652 80C145.228 80 145.732 80.124 146.164 80.372C146.604 80.62 146.94 80.976 147.172 81.44C147.412 81.896 147.532 82.432 147.532 83.048C147.532 83.656 147.412 84.192 147.172 84.656C146.94 85.112 146.604 85.464 146.164 85.712C145.732 85.96 145.228 86.084 144.652 86.084ZM144.652 85.124C145.188 85.124 145.596 84.948 145.876 84.596C146.164 84.244 146.308 83.728 146.308 83.048C146.308 82.376 146.164 81.864 145.876 81.512C145.588 81.152 145.18 80.972 144.652 80.972C144.124 80.972 143.716 81.152 143.428 81.512C143.14 81.864 142.996 82.376 142.996 83.048C142.996 83.728 143.136 84.244 143.416 84.596C143.704 84.948 144.116 85.124 144.652 85.124ZM152.445 81.02L151.713 81.092C151.137 81.148 150.721 81.324 150.465 81.62C150.217 81.916 150.093 82.292 150.093 82.748V86H148.881V80.144H150.057V81.164C150.369 80.476 151.005 80.096 151.965 80.024L152.361 80L152.445 81.02ZM158.558 77.54V86H157.358V84.992C157.182 85.344 156.926 85.616 156.59 85.808C156.254 85.992 155.866 86.084 155.426 86.084C154.922 86.084 154.47 85.956 154.07 85.7C153.678 85.444 153.37 85.084 153.146 84.62C152.93 84.156 152.822 83.624 152.822 83.024C152.822 82.416 152.93 81.884 153.146 81.428C153.37 80.972 153.678 80.62 154.07 80.372C154.462 80.124 154.914 80 155.426 80C155.866 80 156.25 80.096 156.578 80.288C156.914 80.472 157.17 80.736 157.346 81.08V77.54H158.558ZM155.714 85.124C156.242 85.124 156.646 84.944 156.926 84.584C157.214 84.224 157.358 83.712 157.358 83.048C157.358 82.384 157.214 81.872 156.926 81.512C156.646 81.152 156.242 80.972 155.714 80.972C155.186 80.972 154.774 81.152 154.478 81.512C154.19 81.864 154.046 82.368 154.046 83.024C154.046 83.68 154.194 84.196 154.49 84.572C154.786 84.94 155.194 85.124 155.714 85.124ZM165.264 83.276H161.124C161.212 84.516 161.828 85.136 162.972 85.136C163.644 85.136 164.252 84.916 164.796 84.476L165.168 85.328C164.896 85.56 164.56 85.744 164.16 85.88C163.76 86.016 163.352 86.084 162.936 86.084C162 86.084 161.26 85.816 160.716 85.28C160.18 84.744 159.912 84.004 159.912 83.06C159.912 82.46 160.028 81.928 160.26 81.464C160.5 81 160.832 80.64 161.256 80.384C161.688 80.128 162.176 80 162.72 80C163.512 80 164.132 80.256 164.58 80.768C165.036 81.28 165.264 81.988 165.264 82.892V83.276ZM162.744 80.888C162.28 80.888 161.908 81.036 161.628 81.332C161.356 81.62 161.192 82.036 161.136 82.58H164.22C164.196 82.036 164.056 81.62 163.8 81.332C163.552 81.036 163.2 80.888 162.744 80.888ZM170.164 81.02L169.432 81.092C168.856 81.148 168.44 81.324 168.184 81.62C167.936 81.916 167.812 82.292 167.812 82.748V86H166.6V80.144H167.776V81.164C168.088 80.476 168.724 80.096 169.684 80.024L170.08 80L170.164 81.02Z" fill="black"/>
<path d="M50.26 67V54.93H58.369V56.987H52.606V60.098H57.4V62.002H52.606V67H50.26ZM59.6307 67V58.092H61.9087V67H59.6307ZM59.6307 56.851V54.59H61.9087V56.851H59.6307ZM69.0977 60.064C68.4063 60.0753 67.7887 60.2113 67.2447 60.472C66.7007 60.7213 66.3097 61.101 66.0717 61.611V67H63.7937V58.092H65.8847V59.996C66.0433 59.69 66.2303 59.418 66.4457 59.18C66.661 58.9307 66.8933 58.7153 67.1427 58.534C67.392 58.3527 67.6413 58.2167 67.8907 58.126C68.1513 58.024 68.4007 57.973 68.6387 57.973C68.7633 57.973 68.854 57.973 68.9107 57.973C68.9787 57.973 69.041 57.9787 69.0977 57.99V60.064ZM73.5639 67.17C72.8159 67.17 72.0849 67.051 71.3709 66.813C70.6569 66.575 70.0449 66.235 69.5349 65.793L70.3849 64.365C70.9289 64.7503 71.4559 65.045 71.9659 65.249C72.4872 65.4417 73.0029 65.538 73.5129 65.538C73.9662 65.538 74.3232 65.453 74.5839 65.283C74.8446 65.113 74.9749 64.8693 74.9749 64.552C74.9749 64.2347 74.8219 64.0023 74.5159 63.855C74.2099 63.7077 73.7112 63.5377 73.0199 63.345C72.4419 63.1863 71.9489 63.0333 71.5409 62.886C71.1329 62.7387 70.8042 62.5743 70.5549 62.393C70.3056 62.2003 70.1242 61.985 70.0109 61.747C69.8976 61.4977 69.8409 61.203 69.8409 60.863C69.8409 60.4097 69.9259 60.0017 70.0959 59.639C70.2772 59.2763 70.5266 58.9703 70.8439 58.721C71.1612 58.4603 71.5296 58.262 71.9489 58.126C72.3796 57.99 72.8442 57.922 73.3429 57.922C74.0116 57.922 74.6349 58.0183 75.2129 58.211C75.8022 58.4037 76.3406 58.7153 76.8279 59.146L75.9099 60.523C75.4566 60.183 75.0146 59.9337 74.5839 59.775C74.1646 59.6163 73.7452 59.537 73.3259 59.537C72.9406 59.537 72.6176 59.6163 72.3569 59.775C72.0962 59.9337 71.9659 60.1887 71.9659 60.54C71.9659 60.6987 71.9942 60.829 72.0509 60.931C72.1189 61.033 72.2209 61.1237 72.3569 61.203C72.4929 61.2823 72.6686 61.3617 72.8839 61.441C73.1106 61.509 73.3882 61.5827 73.7169 61.662C74.3289 61.8207 74.8502 61.9793 75.2809 62.138C75.7229 62.2967 76.0799 62.478 76.3519 62.682C76.6352 62.886 76.8392 63.124 76.9639 63.396C77.0999 63.6567 77.1679 63.974 77.1679 64.348C77.1679 65.2207 76.8449 65.912 76.1989 66.422C75.5529 66.9207 74.6746 67.17 73.5639 67.17ZM83.8161 66.541C83.5101 66.677 83.1361 66.813 82.6941 66.949C82.2521 67.085 81.7874 67.153 81.3001 67.153C80.9828 67.153 80.6824 67.1133 80.3991 67.034C80.1271 66.9547 79.8834 66.83 79.6681 66.66C79.4641 66.4787 79.2998 66.252 79.1751 65.98C79.0504 65.6967 78.9881 65.3567 78.9881 64.96V59.843H77.8151V58.092H78.9881V55.202H81.2661V58.092H83.1361V59.843H81.2661V64.195C81.2661 64.5123 81.3454 64.739 81.5041 64.875C81.6741 64.9997 81.8781 65.062 82.1161 65.062C82.3541 65.062 82.5864 65.0223 82.8131 64.943C83.0398 64.8637 83.2211 64.7957 83.3571 64.739L83.8161 66.541ZM88.9675 67V54.93H94.0845C94.6398 54.93 95.1498 55.049 95.6145 55.287C96.0905 55.5137 96.4985 55.8197 96.8385 56.205C97.1785 56.579 97.4448 57.0097 97.6375 57.497C97.8302 57.973 97.9265 58.4547 97.9265 58.942C97.9265 59.452 97.8358 59.9507 97.6545 60.438C97.4732 60.914 97.2182 61.339 96.8895 61.713C96.5608 62.087 96.1642 62.3873 95.6995 62.614C95.2348 62.8407 94.7248 62.954 94.1695 62.954H91.3135V67H88.9675ZM91.3135 60.897H94.0335C94.4642 60.897 94.8212 60.7213 95.1045 60.37C95.3992 60.0187 95.5465 59.5427 95.5465 58.942C95.5465 58.636 95.5012 58.364 95.4105 58.126C95.3198 57.8767 95.2008 57.667 95.0535 57.497C94.9062 57.327 94.7305 57.2023 94.5265 57.123C94.3338 57.0323 94.1355 56.987 93.9315 56.987H91.3135V60.897ZM101.888 67.17C100.97 67.17 100.273 66.8753 99.7973 66.286C99.3213 65.6967 99.0833 64.824 99.0833 63.668V58.092H101.361V63.175C101.361 64.5463 101.854 65.232 102.84 65.232C103.282 65.232 103.707 65.1017 104.115 64.841C104.535 64.569 104.875 64.161 105.135 63.617V58.092H107.413V64.382C107.413 64.62 107.453 64.79 107.532 64.892C107.623 64.994 107.765 65.0507 107.957 65.062V67C107.731 67.0453 107.538 67.0737 107.379 67.085C107.232 67.0963 107.096 67.102 106.971 67.102C106.563 67.102 106.229 67.0113 105.968 66.83C105.719 66.6373 105.572 66.3767 105.526 66.048L105.475 65.334C105.079 65.946 104.569 66.405 103.945 66.711C103.322 67.017 102.636 67.17 101.888 67.17ZM114.811 60.064C114.12 60.0753 113.502 60.2113 112.958 60.472C112.414 60.7213 112.023 61.101 111.785 61.611V67H109.507V58.092H111.598V59.996C111.757 59.69 111.944 59.418 112.159 59.18C112.374 58.9307 112.607 58.7153 112.856 58.534C113.105 58.3527 113.355 58.2167 113.604 58.126C113.865 58.024 114.114 57.973 114.352 57.973C114.477 57.973 114.567 57.973 114.624 57.973C114.692 57.973 114.754 57.9787 114.811 57.99V60.064ZM114.902 62.546C114.902 61.9227 115.01 61.3333 115.225 60.778C115.44 60.2227 115.752 59.7353 116.16 59.316C116.568 58.8967 117.061 58.5623 117.639 58.313C118.217 58.0637 118.869 57.939 119.594 57.939C120.569 57.939 121.396 58.1487 122.076 58.568C122.767 58.9873 123.283 59.537 123.623 60.217L121.396 60.897C121.203 60.5683 120.948 60.319 120.631 60.149C120.314 59.9677 119.962 59.877 119.577 59.877C119.248 59.877 118.942 59.945 118.659 60.081C118.376 60.2057 118.126 60.387 117.911 60.625C117.707 60.8517 117.543 61.1293 117.418 61.458C117.305 61.7867 117.248 62.1493 117.248 62.546C117.248 62.9427 117.31 63.3053 117.435 63.634C117.56 63.9627 117.724 64.246 117.928 64.484C118.143 64.722 118.393 64.909 118.676 65.045C118.959 65.1697 119.26 65.232 119.577 65.232C119.985 65.232 120.359 65.13 120.699 64.926C121.05 64.722 121.294 64.4727 121.43 64.178L123.657 64.858C123.351 65.538 122.847 66.0933 122.144 66.524C121.441 66.9547 120.597 67.17 119.611 67.17C118.886 67.17 118.234 67.0453 117.656 66.796C117.078 66.5467 116.585 66.2123 116.177 65.793C115.769 65.3623 115.452 64.8693 115.225 64.314C115.01 63.7473 114.902 63.158 114.902 62.546ZM133.168 67H130.89V62.002C130.89 61.2993 130.759 60.7837 130.499 60.455C130.238 60.115 129.87 59.945 129.394 59.945C129.19 59.945 128.974 59.9903 128.748 60.081C128.521 60.1717 128.306 60.302 128.102 60.472C127.898 60.6307 127.711 60.8233 127.541 61.05C127.371 61.2767 127.246 61.526 127.167 61.798V67H124.889V54.59H127.167V59.741C127.495 59.163 127.937 58.721 128.493 58.415C129.059 58.0977 129.683 57.939 130.363 57.939C130.941 57.939 131.411 58.041 131.774 58.245C132.136 58.4377 132.42 58.6983 132.624 59.027C132.828 59.3557 132.969 59.7297 133.049 60.149C133.128 60.5683 133.168 60.999 133.168 61.441V67ZM137.41 67.17C136.979 67.17 136.577 67.102 136.203 66.966C135.829 66.8187 135.506 66.6203 135.234 66.371C134.962 66.1103 134.746 65.81 134.588 65.47C134.44 65.13 134.367 64.756 134.367 64.348C134.367 63.9287 134.457 63.5433 134.639 63.192C134.831 62.8293 135.092 62.5233 135.421 62.274C135.761 62.0247 136.163 61.832 136.628 61.696C137.092 61.5487 137.602 61.475 138.158 61.475C138.554 61.475 138.94 61.509 139.314 61.577C139.699 61.645 140.039 61.7413 140.334 61.866V61.356C140.334 60.7667 140.164 60.3133 139.824 59.996C139.495 59.6787 139.002 59.52 138.345 59.52C137.869 59.52 137.404 59.605 136.951 59.775C136.497 59.945 136.033 60.1943 135.557 60.523L134.86 59.078C136.004 58.3187 137.24 57.939 138.566 57.939C139.846 57.939 140.838 58.2563 141.541 58.891C142.255 59.5143 142.612 60.421 142.612 61.611V64.382C142.612 64.62 142.651 64.79 142.731 64.892C142.821 64.994 142.963 65.0507 143.156 65.062V67C142.77 67.0793 142.436 67.119 142.153 67.119C141.722 67.119 141.388 67.0227 141.15 66.83C140.923 66.6373 140.781 66.3823 140.725 66.065L140.674 65.572C140.277 66.0933 139.795 66.49 139.229 66.762C138.662 67.034 138.056 67.17 137.41 67.17ZM138.056 65.504C138.441 65.504 138.804 65.436 139.144 65.3C139.495 65.164 139.767 64.9827 139.96 64.756C140.209 64.5633 140.334 64.348 140.334 64.11V63.09C140.062 62.988 139.767 62.9087 139.45 62.852C139.132 62.784 138.826 62.75 138.532 62.75C137.942 62.75 137.461 62.886 137.087 63.158C136.713 63.4187 136.526 63.753 136.526 64.161C136.526 64.5463 136.673 64.8693 136.968 65.13C137.262 65.3793 137.625 65.504 138.056 65.504ZM147.936 67.17C147.188 67.17 146.457 67.051 145.743 66.813C145.029 66.575 144.417 66.235 143.907 65.793L144.757 64.365C145.301 64.7503 145.828 65.045 146.338 65.249C146.86 65.4417 147.375 65.538 147.885 65.538C148.339 65.538 148.696 65.453 148.956 65.283C149.217 65.113 149.347 64.8693 149.347 64.552C149.347 64.2347 149.194 64.0023 148.888 63.855C148.582 63.7077 148.084 63.5377 147.392 63.345C146.814 63.1863 146.321 63.0333 145.913 62.886C145.505 62.7387 145.177 62.5743 144.927 62.393C144.678 62.2003 144.497 61.985 144.383 61.747C144.27 61.4977 144.213 61.203 144.213 60.863C144.213 60.4097 144.298 60.0017 144.468 59.639C144.65 59.2763 144.899 58.9703 145.216 58.721C145.534 58.4603 145.902 58.262 146.321 58.126C146.752 57.99 147.217 57.922 147.715 57.922C148.384 57.922 149.007 58.0183 149.585 58.211C150.175 58.4037 150.713 58.7153 151.2 59.146L150.282 60.523C149.829 60.183 149.387 59.9337 148.956 59.775C148.537 59.6163 148.118 59.537 147.698 59.537C147.313 59.537 146.99 59.6163 146.729 59.775C146.469 59.9337 146.338 60.1887 146.338 60.54C146.338 60.6987 146.367 60.829 146.423 60.931C146.491 61.033 146.593 61.1237 146.729 61.203C146.865 61.2823 147.041 61.3617 147.256 61.441C147.483 61.509 147.761 61.5827 148.089 61.662C148.701 61.8207 149.223 61.9793 149.653 62.138C150.095 62.2967 150.452 62.478 150.724 62.682C151.008 62.886 151.212 63.124 151.336 63.396C151.472 63.6567 151.54 63.974 151.54 64.348C151.54 65.2207 151.217 65.912 150.571 66.422C149.925 66.9207 149.047 67.17 147.936 67.17ZM156.981 67.17C156.267 67.17 155.621 67.051 155.043 66.813C154.465 66.5637 153.972 66.2293 153.564 65.81C153.156 65.3907 152.839 64.9033 152.612 64.348C152.397 63.7927 152.289 63.209 152.289 62.597C152.289 61.9623 152.397 61.3673 152.612 60.812C152.828 60.2453 153.139 59.7523 153.547 59.333C153.955 58.9023 154.448 58.5623 155.026 58.313C155.616 58.0637 156.273 57.939 156.998 57.939C157.724 57.939 158.37 58.0637 158.936 58.313C159.514 58.5623 160.002 58.8967 160.398 59.316C160.806 59.7353 161.112 60.2227 161.316 60.778C161.532 61.3333 161.639 61.9113 161.639 62.512C161.639 62.6593 161.634 62.801 161.622 62.937C161.622 63.073 161.611 63.1863 161.588 63.277H154.703C154.737 63.6283 154.822 63.94 154.958 64.212C155.094 64.484 155.27 64.7163 155.485 64.909C155.701 65.1017 155.944 65.249 156.216 65.351C156.488 65.453 156.772 65.504 157.066 65.504C157.52 65.504 157.945 65.3963 158.341 65.181C158.749 64.9543 159.027 64.6597 159.174 64.297L161.129 64.841C160.801 65.521 160.274 66.082 159.548 66.524C158.834 66.9547 157.979 67.17 156.981 67.17ZM159.293 61.798C159.237 61.1293 158.987 60.5967 158.545 60.2C158.115 59.792 157.588 59.588 156.964 59.588C156.658 59.588 156.369 59.6447 156.097 59.758C155.837 59.86 155.604 60.0073 155.4 60.2C155.196 60.3927 155.026 60.625 154.89 60.897C154.766 61.169 154.692 61.4693 154.669 61.798H159.293Z" fill="#202020"/>
<g clip-path="url(#clip1_0_2024)">
<path d="M30.6585 55.9395H41.0832C41.7375 55.9395 42.2678 56.4672 42.2678 57.1182L42.7417 66.0769C42.7417 66.7279 42.2113 67.2557 41.5571 67.2557H30.1846C29.5304 67.2557 29 66.7279 29 66.0769L29.4739 57.1182C29.4739 56.4672 30.0042 55.9395 30.6585 55.9395Z" fill="#004CFF"/>
<path d="M32.3579 58.5182V55.1699C32.3579 53.855 33.4164 52.7891 34.7221 52.7891H36.8734C38.1791 52.7891 39.2376 53.855 39.2376 55.1699V58.5182" stroke="white" stroke-width="2" stroke-linecap="round"/>
<path d="M32.3579 55.6234V55.1699C32.3579 53.855 33.4164 52.7891 34.7221 52.7891H36.8734C38.1791 52.7891 39.2376 53.855 39.2376 55.1699V55.6234" stroke="#004CFF" stroke-width="2" stroke-linecap="round"/>
</g>
<path d="M10.002 31.5H346.002" stroke="#004CFF" stroke-dasharray="3"/>
<g clip-path="url(#clip2_0_2024)">
<rect x="240" y="7" width="100" height="19" rx="4" fill="#F9F9F9"/>
<path d="M247.264 13.19L249.849 19.757L252.423 13.19H253.468L250.278 21H249.42L246.219 13.19H247.264ZM255.151 21.11C254.879 21.11 254.626 21.066 254.392 20.978C254.157 20.8827 253.952 20.7543 253.776 20.593C253.607 20.4317 253.471 20.2447 253.369 20.032C253.273 19.812 253.226 19.5737 253.226 19.317C253.226 19.053 253.284 18.8147 253.402 18.602C253.519 18.382 253.684 18.195 253.897 18.041C254.117 17.887 254.373 17.766 254.667 17.678C254.967 17.59 255.294 17.546 255.646 17.546C255.924 17.546 256.207 17.5717 256.493 17.623C256.779 17.6743 257.032 17.744 257.252 17.832V17.37C257.252 16.9007 257.12 16.534 256.856 16.27C256.592 15.9987 256.218 15.863 255.734 15.863C255.154 15.863 254.546 16.0867 253.908 16.534L253.589 15.907C254.329 15.4083 255.074 15.159 255.822 15.159C256.577 15.159 257.164 15.3607 257.582 15.764C258.007 16.1673 258.22 16.7357 258.22 17.469V19.812C258.22 20.0393 258.322 20.1567 258.528 20.164V21C258.425 21.0147 258.341 21.0257 258.275 21.033C258.209 21.0403 258.139 21.044 258.066 21.044C257.875 21.044 257.721 20.989 257.604 20.879C257.494 20.7617 257.428 20.6223 257.406 20.461L257.384 20.054C257.127 20.3987 256.801 20.6627 256.405 20.846C256.016 21.022 255.598 21.11 255.151 21.11ZM255.404 20.384C255.748 20.384 256.067 20.3217 256.361 20.197C256.661 20.065 256.889 19.8927 257.043 19.68C257.182 19.5407 257.252 19.3977 257.252 19.251V18.404C256.782 18.2207 256.295 18.129 255.789 18.129C255.305 18.129 254.909 18.2317 254.601 18.437C254.3 18.6423 254.15 18.91 254.15 19.24C254.15 19.4013 254.179 19.5517 254.238 19.691C254.304 19.8303 254.392 19.9513 254.502 20.054C254.619 20.1567 254.755 20.2373 254.909 20.296C255.063 20.3547 255.228 20.384 255.404 20.384ZM259.679 12.97H260.647V19.515C260.647 19.7277 260.702 19.8963 260.812 20.021C260.93 20.1383 261.091 20.197 261.296 20.197C261.377 20.197 261.472 20.186 261.582 20.164C261.692 20.1347 261.795 20.1017 261.89 20.065L262.044 20.846C261.883 20.912 261.692 20.967 261.472 21.011C261.252 21.055 261.058 21.077 260.889 21.077C260.515 21.077 260.218 20.9707 259.998 20.758C259.786 20.5453 259.679 20.2483 259.679 19.867V12.97ZM262.695 21V15.258H263.663V21H262.695ZM262.695 14.18V12.97H263.663V14.18H262.695ZM267.485 21.11C267.089 21.11 266.722 21.0293 266.385 20.868C266.048 20.7067 265.758 20.4903 265.516 20.219C265.274 19.9477 265.083 19.6323 264.944 19.273C264.812 18.9137 264.746 18.536 264.746 18.14C264.746 17.7367 264.808 17.3553 264.933 16.996C265.065 16.6293 265.245 16.3103 265.472 16.039C265.707 15.7677 265.982 15.555 266.297 15.401C266.62 15.2397 266.972 15.159 267.353 15.159C267.815 15.159 268.226 15.28 268.585 15.522C268.952 15.764 269.241 16.0573 269.454 16.402V12.97H270.422V19.812C270.422 20.0393 270.525 20.1567 270.73 20.164V21C270.627 21.0147 270.543 21.0257 270.477 21.033C270.418 21.0403 270.36 21.044 270.301 21.044C270.11 21.044 269.942 20.9817 269.795 20.857C269.656 20.725 269.586 20.5747 269.586 20.406V19.922C269.359 20.296 269.054 20.5893 268.673 20.802C268.299 21.0073 267.903 21.11 267.485 21.11ZM267.716 20.274C267.892 20.274 268.072 20.241 268.255 20.175C268.446 20.109 268.622 20.0173 268.783 19.9C268.952 19.7827 269.095 19.647 269.212 19.493C269.337 19.3317 269.417 19.163 269.454 18.987V17.337C269.388 17.1537 269.289 16.9813 269.157 16.82C269.025 16.6513 268.875 16.5083 268.706 16.391C268.545 16.2663 268.369 16.171 268.178 16.105C267.995 16.0317 267.811 15.995 267.628 15.995C267.342 15.995 267.082 16.0573 266.847 16.182C266.62 16.2993 266.422 16.4607 266.253 16.666C266.092 16.864 265.967 17.095 265.879 17.359C265.791 17.6157 265.747 17.8797 265.747 18.151C265.747 18.437 265.798 18.712 265.901 18.976C266.004 19.2327 266.143 19.4563 266.319 19.647C266.495 19.8377 266.7 19.9917 266.935 20.109C267.177 20.219 267.437 20.274 267.716 20.274ZM277.966 20.164C278.421 20.164 278.799 20.076 279.099 19.9C279.4 19.724 279.638 19.4967 279.814 19.218C279.998 18.932 280.126 18.6093 280.199 18.25C280.273 17.8833 280.309 17.513 280.309 17.139V13.19H281.299V17.139C281.299 17.667 281.237 18.1693 281.112 18.646C280.995 19.1153 280.804 19.5297 280.54 19.889C280.276 20.2483 279.932 20.5343 279.506 20.747C279.088 20.9523 278.579 21.055 277.977 21.055C277.354 21.055 276.83 20.945 276.404 20.725C275.979 20.505 275.634 20.2153 275.37 19.856C275.114 19.4893 274.927 19.0713 274.809 18.602C274.699 18.1253 274.644 17.6377 274.644 17.139V13.19H275.634V17.139C275.634 17.5277 275.671 17.9053 275.744 18.272C275.825 18.6313 275.953 18.9503 276.129 19.229C276.313 19.5077 276.551 19.735 276.844 19.911C277.145 20.0797 277.519 20.164 277.966 20.164ZM287.691 21H286.723V17.788C286.723 17.172 286.628 16.7247 286.437 16.446C286.254 16.1673 285.971 16.028 285.59 16.028C285.392 16.028 285.194 16.0683 284.996 16.149C284.798 16.2223 284.611 16.325 284.435 16.457C284.259 16.589 284.105 16.7467 283.973 16.93C283.841 17.1133 283.742 17.315 283.676 17.535V21H282.708V15.258H283.588V16.49C283.815 16.0867 284.142 15.764 284.567 15.522C285 15.28 285.469 15.159 285.975 15.159C286.305 15.159 286.58 15.2213 286.8 15.346C287.02 15.4633 287.196 15.632 287.328 15.852C287.46 16.0647 287.552 16.3177 287.603 16.611C287.662 16.9043 287.691 17.2233 287.691 17.568V21ZM292.003 20.714C291.944 20.7433 291.867 20.78 291.772 20.824C291.676 20.8607 291.566 20.901 291.442 20.945C291.324 20.9817 291.192 21.011 291.046 21.033C290.906 21.0623 290.76 21.077 290.606 21.077C290.254 21.077 289.949 20.9817 289.693 20.791C289.436 20.593 289.308 20.2887 289.308 19.878V16.017H288.527V15.258H289.308V13.344H290.276V15.258H291.563V16.017H290.276V19.581C290.29 19.7937 290.36 19.9477 290.485 20.043C290.609 20.1383 290.756 20.186 290.925 20.186C291.115 20.186 291.288 20.1567 291.442 20.098C291.603 20.032 291.713 19.9807 291.772 19.944L292.003 20.714ZM292.79 21V15.258H293.758V21H292.79ZM292.79 14.18V12.97H293.758V14.18H292.79ZM295.237 12.97H296.205V19.515C296.205 19.7277 296.26 19.8963 296.37 20.021C296.487 20.1383 296.649 20.197 296.854 20.197C296.935 20.197 297.03 20.186 297.14 20.164C297.25 20.1347 297.353 20.1017 297.448 20.065L297.602 20.846C297.441 20.912 297.25 20.967 297.03 21.011C296.81 21.055 296.616 21.077 296.447 21.077C296.073 21.077 295.776 20.9707 295.556 20.758C295.343 20.5453 295.237 20.2483 295.237 19.867V12.97ZM302.902 17.546C303.261 17.546 303.595 17.6083 303.903 17.733C304.218 17.8503 304.489 18.019 304.717 18.239C304.944 18.459 305.124 18.723 305.256 19.031C305.388 19.339 305.454 19.6763 305.454 20.043C305.454 20.4317 305.38 20.7837 305.234 21.099C305.094 21.4217 304.9 21.6967 304.651 21.924C304.401 22.1513 304.108 22.3273 303.771 22.452C303.433 22.5767 303.074 22.639 302.693 22.639C302.135 22.639 301.633 22.507 301.186 22.243C300.738 21.979 300.401 21.627 300.174 21.187L300.779 20.659C300.984 20.9963 301.255 21.2677 301.593 21.473C301.937 21.6783 302.308 21.781 302.704 21.781C302.953 21.781 303.184 21.737 303.397 21.649C303.617 21.5683 303.804 21.451 303.958 21.297C304.119 21.1503 304.244 20.9707 304.332 20.758C304.42 20.5453 304.464 20.3107 304.464 20.054C304.464 19.812 304.42 19.5883 304.332 19.383C304.244 19.1777 304.123 19.0017 303.969 18.855C303.822 18.7083 303.646 18.5947 303.441 18.514C303.235 18.4333 303.015 18.393 302.781 18.393C302.465 18.393 302.168 18.4627 301.89 18.602C301.618 18.7413 301.395 18.9393 301.219 19.196H300.35C300.357 19.1593 300.375 19.0677 300.405 18.921C300.434 18.767 300.471 18.5837 300.515 18.371C300.559 18.151 300.606 17.909 300.658 17.645C300.709 17.381 300.76 17.1133 300.812 16.842C300.936 16.2113 301.076 15.5037 301.23 14.719H305.025V15.61H301.945L301.472 18.096C301.633 17.9273 301.835 17.7953 302.077 17.7C302.319 17.5973 302.594 17.546 302.902 17.546ZM306.431 21V19.768H307.245V21H306.431ZM312.527 20.12V21H308.578V20.12H310.14V15.83C310.074 15.918 309.971 16.0133 309.832 16.116C309.692 16.2113 309.535 16.303 309.359 16.391C309.19 16.4717 309.014 16.5413 308.831 16.6C308.647 16.6587 308.486 16.688 308.347 16.688V15.764C308.508 15.764 308.688 15.72 308.886 15.632C309.084 15.5367 309.271 15.4303 309.447 15.313C309.63 15.1883 309.784 15.071 309.909 14.961C310.041 14.8437 310.118 14.763 310.14 14.719H311.13V20.12H312.527ZM318.865 18.415C318.865 18.789 318.791 19.141 318.645 19.471C318.505 19.7937 318.307 20.0797 318.051 20.329C317.801 20.571 317.508 20.7617 317.171 20.901C316.833 21.0403 316.467 21.11 316.071 21.11C315.653 21.11 315.268 21.033 314.916 20.879C314.571 20.725 314.274 20.505 314.025 20.219C313.775 19.9257 313.581 19.5737 313.442 19.163C313.31 18.745 313.244 18.272 313.244 17.744C313.244 16.974 313.313 16.303 313.453 15.731C313.592 15.1517 313.79 14.6713 314.047 14.29C314.303 13.9013 314.611 13.6117 314.971 13.421C315.33 13.2303 315.73 13.135 316.17 13.135C316.676 13.135 317.134 13.256 317.545 13.498C317.963 13.74 318.289 14.081 318.524 14.521L317.93 15.104C317.768 14.7593 317.53 14.488 317.215 14.29C316.899 14.0847 316.547 13.982 316.159 13.982C315.858 13.982 315.587 14.0517 315.345 14.191C315.103 14.323 314.894 14.521 314.718 14.785C314.542 15.049 314.406 15.3717 314.311 15.753C314.215 16.127 314.164 16.556 314.157 17.04C314.318 16.6587 314.578 16.3543 314.938 16.127C315.297 15.8997 315.708 15.786 316.17 15.786C316.544 15.786 316.896 15.8557 317.226 15.995C317.556 16.127 317.842 16.314 318.084 16.556C318.326 16.7907 318.516 17.0693 318.656 17.392C318.795 17.7073 318.865 18.0483 318.865 18.415ZM316.082 20.274C316.331 20.274 316.569 20.2263 316.797 20.131C317.024 20.0283 317.222 19.8927 317.391 19.724C317.559 19.5553 317.691 19.361 317.787 19.141C317.889 18.9137 317.941 18.6717 317.941 18.415C317.941 18.1657 317.889 17.9273 317.787 17.7C317.691 17.4727 317.559 17.2783 317.391 17.117C317.222 16.9483 317.024 16.8163 316.797 16.721C316.569 16.6183 316.331 16.567 316.082 16.567C315.825 16.567 315.583 16.6183 315.356 16.721C315.136 16.8163 314.941 16.9483 314.773 17.117C314.604 17.2783 314.468 17.4727 314.366 17.7C314.27 17.9273 314.223 18.1657 314.223 18.415C314.223 18.6717 314.27 18.9137 314.366 19.141C314.468 19.361 314.604 19.5553 314.773 19.724C314.941 19.8927 315.136 20.0283 315.356 20.131C315.583 20.2263 315.825 20.274 316.082 20.274ZM319.948 21V19.768H320.762V21H319.948ZM321.83 21C321.83 20.7067 321.852 20.4317 321.896 20.175C321.948 19.9183 322.039 19.6727 322.171 19.438C322.303 19.2033 322.483 18.9797 322.71 18.767C322.945 18.5543 323.249 18.3417 323.623 18.129C323.843 18.0117 324.067 17.898 324.294 17.788C324.522 17.6707 324.727 17.5497 324.91 17.425C325.101 17.293 325.255 17.1537 325.372 17.007C325.497 16.8603 325.559 16.688 325.559 16.49C325.559 16.3653 325.53 16.2407 325.471 16.116C325.413 15.9913 325.328 15.8813 325.218 15.786C325.108 15.6907 324.969 15.6137 324.8 15.555C324.639 15.4963 324.452 15.467 324.239 15.467C324.019 15.467 323.818 15.5 323.634 15.566C323.458 15.6247 323.301 15.7017 323.161 15.797C323.022 15.885 322.901 15.9803 322.798 16.083C322.696 16.1857 322.611 16.2773 322.545 16.358L321.918 15.654C321.977 15.588 322.076 15.5 322.215 15.39C322.355 15.2727 322.531 15.1553 322.743 15.038C322.956 14.9207 323.202 14.8217 323.48 14.741C323.759 14.653 324.071 14.609 324.415 14.609C324.753 14.609 325.057 14.6567 325.328 14.752C325.6 14.84 325.827 14.9647 326.01 15.126C326.201 15.2873 326.348 15.478 326.45 15.698C326.553 15.9107 326.604 16.138 326.604 16.38C326.604 16.666 326.542 16.9153 326.417 17.128C326.293 17.3407 326.139 17.5277 325.955 17.689C325.779 17.8503 325.589 17.9897 325.383 18.107C325.178 18.217 324.995 18.3123 324.833 18.393C324.672 18.4737 324.489 18.5727 324.283 18.69C324.085 18.8 323.895 18.9283 323.711 19.075C323.528 19.2143 323.367 19.372 323.227 19.548C323.095 19.724 323.011 19.9147 322.974 20.12H326.725V21H321.83ZM333.294 17.777C333.294 18.261 333.224 18.7083 333.085 19.119C332.946 19.5223 332.751 19.8743 332.502 20.175C332.253 20.4683 331.956 20.6993 331.611 20.868C331.274 21.0293 330.907 21.11 330.511 21.11C330.108 21.11 329.734 21.0293 329.389 20.868C329.052 20.6993 328.758 20.4683 328.509 20.175C328.267 19.8743 328.076 19.5223 327.937 19.119C327.798 18.7083 327.728 18.261 327.728 17.777C327.728 17.293 327.798 16.8493 327.937 16.446C328.076 16.0353 328.267 15.6833 328.509 15.39C328.758 15.0893 329.052 14.8547 329.389 14.686C329.734 14.5173 330.108 14.433 330.511 14.433C330.907 14.433 331.274 14.5173 331.611 14.686C331.956 14.8547 332.253 15.0893 332.502 15.39C332.751 15.6833 332.946 16.0353 333.085 16.446C333.224 16.8493 333.294 17.293 333.294 17.777ZM332.315 17.777C332.315 17.4177 332.271 17.0877 332.183 16.787C332.095 16.4863 331.97 16.2297 331.809 16.017C331.648 15.797 331.457 15.6283 331.237 15.511C331.017 15.3937 330.775 15.335 330.511 15.335C330.24 15.335 329.99 15.3937 329.763 15.511C329.543 15.6283 329.352 15.797 329.191 16.017C329.037 16.2297 328.916 16.4863 328.828 16.787C328.74 17.0877 328.696 17.4177 328.696 17.777C328.696 18.1437 328.74 18.4773 328.828 18.778C328.916 19.0713 329.037 19.3243 329.191 19.537C329.352 19.7497 329.543 19.9147 329.763 20.032C329.99 20.1493 330.24 20.208 330.511 20.208C330.775 20.208 331.017 20.1493 331.237 20.032C331.457 19.9147 331.648 19.7497 331.809 19.537C331.97 19.3243 332.095 19.0713 332.183 18.778C332.271 18.4773 332.315 18.1437 332.315 17.777Z" fill="black"/>
</g>
<path d="M31.648 11.22L35.104 20.886L38.524 11.22H41.134L36.148 24H34.06L29.038 11.22H31.648ZM45.2799 24.18C44.5119 24.18 43.8219 24.048 43.2099 23.784C42.5979 23.52 42.0759 23.166 41.6439 22.722C41.2239 22.266 40.8999 21.744 40.6719 21.156C40.4439 20.568 40.3299 19.95 40.3299 19.302C40.3299 18.642 40.4439 18.018 40.6719 17.43C40.8999 16.842 41.2239 16.326 41.6439 15.882C42.0759 15.426 42.5979 15.066 43.2099 14.802C43.8219 14.538 44.5119 14.406 45.2799 14.406C46.0479 14.406 46.7319 14.538 47.3319 14.802C47.9439 15.066 48.4599 15.426 48.8799 15.882C49.3119 16.326 49.6419 16.842 49.8699 17.43C50.0979 18.018 50.2119 18.642 50.2119 19.302C50.2119 19.95 50.0979 20.568 49.8699 21.156C49.6419 21.744 49.3179 22.266 48.8979 22.722C48.4779 23.166 47.9619 23.52 47.3499 23.784C46.7379 24.048 46.0479 24.18 45.2799 24.18ZM42.8139 19.302C42.8139 19.722 42.8739 20.106 42.9939 20.454C43.1259 20.79 43.2999 21.084 43.5159 21.336C43.7439 21.588 44.0079 21.786 44.3079 21.93C44.6079 22.062 44.9319 22.128 45.2799 22.128C45.6279 22.128 45.9519 22.062 46.2519 21.93C46.5519 21.786 46.8099 21.588 47.0259 21.336C47.2539 21.084 47.4279 20.784 47.5479 20.436C47.6799 20.088 47.7459 19.704 47.7459 19.284C47.7459 18.876 47.6799 18.498 47.5479 18.15C47.4279 17.802 47.2539 17.502 47.0259 17.25C46.8099 16.998 46.5519 16.806 46.2519 16.674C45.9519 16.53 45.6279 16.458 45.2799 16.458C44.9319 16.458 44.6079 16.53 44.3079 16.674C44.0079 16.818 43.7439 17.016 43.5159 17.268C43.2999 17.52 43.1259 17.82 42.9939 18.168C42.8739 18.516 42.8139 18.894 42.8139 19.302ZM54.5399 24.18C53.5679 24.18 52.8299 23.868 52.3259 23.244C51.8219 22.62 51.5699 21.696 51.5699 20.472V14.568H53.9819V19.95C53.9819 21.402 54.5039 22.128 55.5479 22.128C56.0159 22.128 56.4659 21.99 56.8979 21.714C57.3419 21.426 57.7019 20.994 57.9779 20.418V14.568H60.3899V21.228C60.3899 21.48 60.4319 21.66 60.5159 21.768C60.6119 21.876 60.7619 21.936 60.9659 21.948V24C60.7259 24.048 60.5219 24.078 60.3539 24.09C60.1979 24.102 60.0539 24.108 59.9219 24.108C59.4899 24.108 59.1359 24.012 58.8599 23.82C58.5959 23.616 58.4399 23.34 58.3919 22.992L58.3379 22.236C57.9179 22.884 57.3779 23.37 56.7179 23.694C56.0579 24.018 55.3319 24.18 54.5399 24.18ZM62.0128 19.284C62.0128 18.624 62.1268 18 62.3548 17.412C62.5828 16.824 62.9128 16.308 63.3448 15.864C63.7768 15.42 64.2988 15.066 64.9108 14.802C65.5228 14.538 66.2128 14.406 66.9808 14.406C68.0128 14.406 68.8888 14.628 69.6088 15.072C70.3408 15.516 70.8868 16.098 71.2468 16.818L68.8888 17.538C68.6848 17.19 68.4148 16.926 68.0788 16.746C67.7428 16.554 67.3708 16.458 66.9628 16.458C66.6148 16.458 66.2908 16.53 65.9908 16.674C65.6908 16.806 65.4268 16.998 65.1988 17.25C64.9828 17.49 64.8088 17.784 64.6768 18.132C64.5568 18.48 64.4968 18.864 64.4968 19.284C64.4968 19.704 64.5628 20.088 64.6948 20.436C64.8268 20.784 65.0008 21.084 65.2168 21.336C65.4448 21.588 65.7088 21.786 66.0088 21.93C66.3088 22.062 66.6268 22.128 66.9628 22.128C67.3948 22.128 67.7908 22.02 68.1508 21.804C68.5228 21.588 68.7808 21.324 68.9248 21.012L71.2828 21.732C70.9588 22.452 70.4248 23.04 69.6808 23.496C68.9368 23.952 68.0428 24.18 66.9988 24.18C66.2308 24.18 65.5408 24.048 64.9288 23.784C64.3168 23.52 63.7948 23.166 63.3628 22.722C62.9308 22.266 62.5948 21.744 62.3548 21.156C62.1268 20.556 62.0128 19.932 62.0128 19.284ZM81.353 24H78.941V18.708C78.941 17.964 78.803 17.418 78.527 17.07C78.251 16.71 77.861 16.53 77.357 16.53C77.141 16.53 76.913 16.578 76.673 16.674C76.433 16.77 76.205 16.908 75.989 17.088C75.773 17.256 75.575 17.46 75.395 17.7C75.215 17.94 75.083 18.204 74.999 18.492V24H72.587V10.86H74.999V16.314C75.347 15.702 75.815 15.234 76.403 14.91C77.003 14.574 77.663 14.406 78.383 14.406C78.995 14.406 79.493 14.514 79.877 14.73C80.261 14.934 80.561 15.21 80.777 15.558C80.993 15.906 81.143 16.302 81.227 16.746C81.311 17.19 81.353 17.646 81.353 18.114V24ZM87.6443 24.18C86.8883 24.18 86.2043 24.054 85.5923 23.802C84.9803 23.538 84.4583 23.184 84.0263 22.74C83.5943 22.296 83.2583 21.78 83.0183 21.192C82.7903 20.604 82.6763 19.986 82.6763 19.338C82.6763 18.666 82.7903 18.036 83.0183 17.448C83.2463 16.848 83.5763 16.326 84.0083 15.882C84.4403 15.426 84.9623 15.066 85.5743 14.802C86.1983 14.538 86.8943 14.406 87.6623 14.406C88.4303 14.406 89.1143 14.538 89.7143 14.802C90.3263 15.066 90.8423 15.42 91.2623 15.864C91.6943 16.308 92.0183 16.824 92.2343 17.412C92.4623 18 92.5763 18.612 92.5763 19.248C92.5763 19.404 92.5703 19.554 92.5583 19.698C92.5583 19.842 92.5463 19.962 92.5223 20.058H85.2323C85.2683 20.43 85.3583 20.76 85.5023 21.048C85.6463 21.336 85.8323 21.582 86.0603 21.786C86.2883 21.99 86.5463 22.146 86.8343 22.254C87.1223 22.362 87.4223 22.416 87.7343 22.416C88.2143 22.416 88.6643 22.302 89.0843 22.074C89.5163 21.834 89.8103 21.522 89.9663 21.138L92.0363 21.714C91.6883 22.434 91.1303 23.028 90.3623 23.496C89.6063 23.952 88.7003 24.18 87.6443 24.18ZM90.0923 18.492C90.0323 17.784 89.7683 17.22 89.3003 16.8C88.8443 16.368 88.2863 16.152 87.6263 16.152C87.3023 16.152 86.9963 16.212 86.7083 16.332C86.4323 16.44 86.1863 16.596 85.9703 16.8C85.7543 17.004 85.5743 17.25 85.4303 17.538C85.2983 17.826 85.2203 18.144 85.1963 18.492H90.0923ZM99.4817 16.656C98.7497 16.668 98.0957 16.812 97.5197 17.088C96.9437 17.352 96.5297 17.754 96.2777 18.294V24H93.8657V14.568H96.0797V16.584C96.2477 16.26 96.4457 15.972 96.6737 15.72C96.9017 15.456 97.1477 15.228 97.4117 15.036C97.6757 14.844 97.9397 14.7 98.2037 14.604C98.4797 14.496 98.7437 14.442 98.9957 14.442C99.1277 14.442 99.2237 14.442 99.2837 14.442C99.3557 14.442 99.4217 14.448 99.4817 14.46V16.656Z" fill="#004CFF"/>
<rect x="260.5" y="67.5" width="78" height="25" rx="5.5" fill="#004CFF" stroke="#0042E0"/>
<path d="M269.675 80.96C269.675 80.3627 269.778 79.77 269.983 79.182C270.198 78.5847 270.506 78.0527 270.907 77.586C271.318 77.11 271.817 76.7273 272.405 76.438C272.993 76.1487 273.661 76.004 274.407 76.004C275.294 76.004 276.055 76.2047 276.689 76.606C277.324 77.0073 277.795 77.53 278.103 78.174L277.109 78.818C276.96 78.5007 276.778 78.2347 276.563 78.02C276.358 77.8053 276.129 77.6327 275.877 77.502C275.635 77.3713 275.383 77.278 275.121 77.222C274.86 77.166 274.603 77.138 274.351 77.138C273.801 77.138 273.311 77.2547 272.881 77.488C272.461 77.712 272.107 78.0107 271.817 78.384C271.528 78.748 271.309 79.1633 271.159 79.63C271.019 80.0873 270.949 80.5493 270.949 81.016C270.949 81.5387 271.033 82.038 271.201 82.514C271.379 82.9807 271.621 83.396 271.929 83.76C272.237 84.124 272.601 84.4133 273.021 84.628C273.441 84.8427 273.899 84.95 274.393 84.95C274.655 84.95 274.921 84.9173 275.191 84.852C275.471 84.7867 275.737 84.684 275.989 84.544C276.241 84.3947 276.475 84.2127 276.689 83.998C276.913 83.774 277.095 83.508 277.235 83.2L278.285 83.774C278.127 84.1473 277.903 84.4787 277.613 84.768C277.333 85.048 277.011 85.286 276.647 85.482C276.293 85.678 275.915 85.8273 275.513 85.93C275.112 86.0327 274.72 86.084 274.337 86.084C273.656 86.084 273.031 85.9347 272.461 85.636C271.892 85.3373 271.397 84.95 270.977 84.474C270.567 83.9887 270.245 83.4427 270.011 82.836C269.787 82.22 269.675 81.5947 269.675 80.96ZM282.718 86.14C282.168 86.14 281.664 86.0373 281.206 85.832C280.758 85.6267 280.371 85.3513 280.044 85.006C279.727 84.6607 279.48 84.2593 279.302 83.802C279.125 83.3447 279.036 82.864 279.036 82.36C279.036 81.8467 279.125 81.3613 279.302 80.904C279.489 80.4467 279.741 80.0453 280.058 79.7C280.385 79.3547 280.772 79.0793 281.22 78.874C281.678 78.6687 282.177 78.566 282.718 78.566C283.26 78.566 283.759 78.6687 284.216 78.874C284.674 79.0793 285.061 79.3547 285.378 79.7C285.705 80.0453 285.957 80.4467 286.134 80.904C286.321 81.3613 286.414 81.8467 286.414 82.36C286.414 82.864 286.326 83.3447 286.148 83.802C285.971 84.2593 285.719 84.6607 285.392 85.006C285.066 85.3513 284.674 85.6267 284.216 85.832C283.768 86.0373 283.269 86.14 282.718 86.14ZM280.296 82.374C280.296 82.7567 280.357 83.1113 280.478 83.438C280.609 83.7647 280.782 84.0493 280.996 84.292C281.22 84.5347 281.477 84.726 281.766 84.866C282.065 85.006 282.382 85.076 282.718 85.076C283.054 85.076 283.367 85.006 283.656 84.866C283.955 84.726 284.216 84.5347 284.44 84.292C284.664 84.04 284.837 83.7507 284.958 83.424C285.089 83.088 285.154 82.7287 285.154 82.346C285.154 81.9727 285.089 81.6227 284.958 81.296C284.837 80.96 284.664 80.6707 284.44 80.428C284.216 80.176 283.955 79.98 283.656 79.84C283.367 79.7 283.054 79.63 282.718 79.63C282.382 79.63 282.065 79.7047 281.766 79.854C281.477 79.994 281.22 80.19 280.996 80.442C280.782 80.6847 280.609 80.974 280.478 81.31C280.357 81.6367 280.296 81.9913 280.296 82.374ZM287.795 75.78H289.027V84.11C289.027 84.3807 289.097 84.5953 289.237 84.754C289.386 84.9033 289.592 84.978 289.853 84.978C289.956 84.978 290.077 84.964 290.217 84.936C290.357 84.8987 290.488 84.8567 290.609 84.81L290.805 85.804C290.6 85.888 290.357 85.958 290.077 86.014C289.797 86.07 289.55 86.098 289.335 86.098C288.859 86.098 288.481 85.9627 288.201 85.692C287.93 85.4213 287.795 85.0433 287.795 84.558V75.78ZM291.661 75.78H292.893V84.11C292.893 84.3807 292.963 84.5953 293.103 84.754C293.252 84.9033 293.458 84.978 293.719 84.978C293.822 84.978 293.943 84.964 294.083 84.936C294.223 84.8987 294.354 84.8567 294.475 84.81L294.671 85.804C294.466 85.888 294.223 85.958 293.943 86.014C293.663 86.07 293.416 86.098 293.201 86.098C292.725 86.098 292.347 85.9627 292.067 85.692C291.796 85.4213 291.661 85.0433 291.661 84.558V75.78ZM298.733 86.14C298.182 86.14 297.678 86.042 297.221 85.846C296.764 85.6407 296.372 85.3653 296.045 85.02C295.718 84.6747 295.462 84.2733 295.275 83.816C295.098 83.3493 295.009 82.8593 295.009 82.346C295.009 81.8327 295.098 81.3473 295.275 80.89C295.462 80.4327 295.718 80.0313 296.045 79.686C296.381 79.3407 296.778 79.07 297.235 78.874C297.692 78.6687 298.196 78.566 298.747 78.566C299.298 78.566 299.797 78.6687 300.245 78.874C300.702 79.0793 301.09 79.3547 301.407 79.7C301.724 80.036 301.967 80.4327 302.135 80.89C302.312 81.338 302.401 81.8047 302.401 82.29C302.401 82.3927 302.396 82.486 302.387 82.57C302.387 82.654 302.382 82.7193 302.373 82.766H296.311C296.339 83.13 296.423 83.4613 296.563 83.76C296.703 84.0587 296.885 84.3153 297.109 84.53C297.333 84.7447 297.585 84.9127 297.865 85.034C298.154 85.1553 298.458 85.216 298.775 85.216C298.999 85.216 299.218 85.188 299.433 85.132C299.648 85.0667 299.848 84.9827 300.035 84.88C300.222 84.7773 300.385 84.6513 300.525 84.502C300.674 84.3527 300.786 84.1847 300.861 83.998L301.925 84.292C301.804 84.5627 301.636 84.81 301.421 85.034C301.216 85.258 300.973 85.454 300.693 85.622C300.422 85.7807 300.119 85.9067 299.783 86C299.447 86.0933 299.097 86.14 298.733 86.14ZM301.239 81.856C301.211 81.5107 301.122 81.1933 300.973 80.904C300.833 80.6053 300.651 80.3533 300.427 80.148C300.212 79.9427 299.96 79.784 299.671 79.672C299.382 79.5507 299.074 79.49 298.747 79.49C298.42 79.49 298.112 79.5507 297.823 79.672C297.534 79.784 297.277 79.9473 297.053 80.162C296.838 80.3673 296.661 80.6147 296.521 80.904C296.39 81.1933 296.311 81.5107 296.283 81.856H301.239ZM303.14 82.332C303.14 81.8187 303.229 81.3333 303.406 80.876C303.584 80.4187 303.836 80.022 304.162 79.686C304.489 79.3407 304.876 79.07 305.324 78.874C305.782 78.6687 306.29 78.566 306.85 78.566C307.578 78.566 308.204 78.7293 308.726 79.056C309.258 79.3733 309.66 79.8027 309.93 80.344L308.726 80.722C308.54 80.3767 308.278 80.1107 307.942 79.924C307.606 79.728 307.233 79.63 306.822 79.63C306.486 79.63 306.169 79.7 305.87 79.84C305.572 79.9707 305.315 80.1573 305.1 80.4C304.886 80.6427 304.713 80.9273 304.582 81.254C304.461 81.5807 304.4 81.94 304.4 82.332C304.4 82.7147 304.466 83.074 304.596 83.41C304.727 83.746 304.9 84.04 305.114 84.292C305.338 84.5347 305.595 84.726 305.884 84.866C306.183 85.006 306.5 85.076 306.836 85.076C307.051 85.076 307.261 85.048 307.466 84.992C307.681 84.9267 307.872 84.8427 308.04 84.74C308.218 84.6373 308.372 84.5207 308.502 84.39C308.633 84.25 308.726 84.1007 308.782 83.942L309.986 84.306C309.874 84.5767 309.716 84.824 309.51 85.048C309.314 85.272 309.081 85.4633 308.81 85.622C308.54 85.7807 308.236 85.9067 307.9 86C307.574 86.0933 307.228 86.14 306.864 86.14C306.314 86.14 305.81 86.0373 305.352 85.832C304.895 85.6267 304.503 85.3513 304.176 85.006C303.85 84.6607 303.593 84.2593 303.406 83.802C303.229 83.3353 303.14 82.8453 303.14 82.332ZM315.022 85.636C314.948 85.6733 314.85 85.72 314.728 85.776C314.607 85.8227 314.467 85.874 314.308 85.93C314.159 85.9767 313.991 86.014 313.804 86.042C313.627 86.0793 313.44 86.098 313.244 86.098C312.796 86.098 312.409 85.9767 312.082 85.734C311.756 85.482 311.592 85.0947 311.592 84.572V79.658H310.598V78.692H311.592V76.256H312.824V78.692H314.462V79.658H312.824V84.194C312.843 84.4647 312.932 84.6607 313.09 84.782C313.249 84.9033 313.436 84.964 313.65 84.964C313.893 84.964 314.112 84.9267 314.308 84.852C314.514 84.768 314.654 84.7027 314.728 84.656L315.022 85.636ZM319.162 86.14C318.612 86.14 318.108 86.042 317.65 85.846C317.193 85.6407 316.801 85.3653 316.474 85.02C316.148 84.6747 315.891 84.2733 315.704 83.816C315.527 83.3493 315.438 82.8593 315.438 82.346C315.438 81.8327 315.527 81.3473 315.704 80.89C315.891 80.4327 316.148 80.0313 316.474 79.686C316.81 79.3407 317.207 79.07 317.664 78.874C318.122 78.6687 318.626 78.566 319.176 78.566C319.727 78.566 320.226 78.6687 320.674 78.874C321.132 79.0793 321.519 79.3547 321.836 79.7C322.154 80.036 322.396 80.4327 322.564 80.89C322.742 81.338 322.83 81.8047 322.83 82.29C322.83 82.3927 322.826 82.486 322.816 82.57C322.816 82.654 322.812 82.7193 322.802 82.766H316.74C316.768 83.13 316.852 83.4613 316.992 83.76C317.132 84.0587 317.314 84.3153 317.538 84.53C317.762 84.7447 318.014 84.9127 318.294 85.034C318.584 85.1553 318.887 85.216 319.204 85.216C319.428 85.216 319.648 85.188 319.862 85.132C320.077 85.0667 320.278 84.9827 320.464 84.88C320.651 84.7773 320.814 84.6513 320.954 84.502C321.104 84.3527 321.216 84.1847 321.29 83.998L322.354 84.292C322.233 84.5627 322.065 84.81 321.85 85.034C321.645 85.258 321.402 85.454 321.122 85.622C320.852 85.7807 320.548 85.9067 320.212 86C319.876 86.0933 319.526 86.14 319.162 86.14ZM321.668 81.856C321.64 81.5107 321.552 81.1933 321.402 80.904C321.262 80.6053 321.08 80.3533 320.856 80.148C320.642 79.9427 320.39 79.784 320.1 79.672C319.811 79.5507 319.503 79.49 319.176 79.49C318.85 79.49 318.542 79.5507 318.252 79.672C317.963 79.784 317.706 79.9473 317.482 80.162C317.268 80.3673 317.09 80.6147 316.95 80.904C316.82 81.1933 316.74 81.5107 316.712 81.856H321.668ZM327.07 86.14C326.566 86.14 326.099 86.0373 325.67 85.832C325.241 85.6267 324.872 85.3513 324.564 85.006C324.256 84.6607 324.013 84.2593 323.836 83.802C323.668 83.3447 323.584 82.864 323.584 82.36C323.584 81.8467 323.663 81.3613 323.822 80.904C323.99 80.4373 324.219 80.0313 324.508 79.686C324.807 79.3407 325.157 79.07 325.558 78.874C325.969 78.6687 326.417 78.566 326.902 78.566C327.49 78.566 328.013 78.72 328.47 79.028C328.937 79.336 329.305 79.7093 329.576 80.148V75.78H330.808V84.488C330.808 84.7773 330.939 84.9267 331.2 84.936V86C331.069 86.0187 330.962 86.0327 330.878 86.042C330.803 86.0513 330.729 86.056 330.654 86.056C330.411 86.056 330.197 85.9767 330.01 85.818C329.833 85.65 329.744 85.4587 329.744 85.244V84.628C329.455 85.104 329.067 85.4773 328.582 85.748C328.106 86.0093 327.602 86.14 327.07 86.14ZM327.364 85.076C327.588 85.076 327.817 85.034 328.05 84.95C328.293 84.866 328.517 84.7493 328.722 84.6C328.937 84.4507 329.119 84.278 329.268 84.082C329.427 83.8767 329.529 83.662 329.576 83.438V81.338C329.492 81.1047 329.366 80.8853 329.198 80.68C329.03 80.4653 328.839 80.2833 328.624 80.134C328.419 79.9753 328.195 79.854 327.952 79.77C327.719 79.6767 327.485 79.63 327.252 79.63C326.888 79.63 326.557 79.7093 326.258 79.868C325.969 80.0173 325.717 80.2227 325.502 80.484C325.297 80.736 325.138 81.03 325.026 81.366C324.914 81.6927 324.858 82.0287 324.858 82.374C324.858 82.738 324.923 83.088 325.054 83.424C325.185 83.7507 325.362 84.0353 325.586 84.278C325.81 84.5207 326.071 84.7167 326.37 84.866C326.678 85.006 327.009 85.076 327.364 85.076Z" fill="white"/>
</g>
<defs>
<filter id="filter0_d_0_2024" x="4.00098" y="-3" width="348" height="112" filterUnits="userSpaceOnUse" color-interpolation-filters="sRGB">
<feFlood flood-opacity="0" result="BackgroundImageFix"/>
<feColorMatrix in="SourceAlpha" type="matrix" values="0 0 0 0 0 0 0 0 0 0 0 0 0 0 0 0 0 0 127 0" result="hardAlpha"/>
<feOffset dy="3"/>
<feGaussianBlur stdDeviation="3"/>
<feColorMatrix type="matrix" values="0 0 0 0 0 0 0 0 0 0 0 0 0 0 0 0 0 0 0.160784 0"/>
<feBlend mode="normal" in2="BackgroundImageFix" result="effect1_dropShadow_0_2024"/>
<feBlend mode="normal" in="SourceGraphic" in2="effect1_dropShadow_0_2024" result="shape"/>
</filter>
<clipPath id="clip0_0_2024">
<rect width="356" height="100" fill="white" transform="translate(0.000976562)"/>
</clipPath>
<clipPath id="clip1_0_2024">
<rect width="13.7417" height="14.4662" fill="white" transform="translate(29 52.7891)"/>
</clipPath>
<clipPath id="clip2_0_2024">
<rect width="100" height="19" fill="white" transform="translate(240 7)"/>
</clipPath>
</defs>
</svg>
